<?xml version="1.0" encoding="UTF-8"?>
<svg height="16px" viewBox="0 0 16 16" width="16px" xmlns="http://www.w3.org/2000/svg">
    <g fill="#241f31">
        <path d="m 16 11 c 0 1.65625 -1.34375 3 -3 3 s -3 -1.34375 -3 -3 s 1.34375 -3 3 -3 s 3 1.34375 3 3 z m 0 0"/>
        <path d="m 6 11 c 0 1.65625 -1.34375 3 -3 3 s -3 -1.34375 -3 -3 s 1.34375 -3 3 -3 s 3 1.34375 3 3 z m 0 0"/>
        <path d="m 11 3 c 0 1.65625 -1.34375 3 -3 3 s -3 -1.34375 -3 -3 s 1.34375 -3 3 -3 s 3 1.34375 3 3 z m 0 0"/>
        <path d="m 8 2 c -3.300781 0 -6 2.695312 -6 6 c 0 3.300781 2.699219 6 6 6 s 6 -2.699219 6 -6 c 0 -3.304688 -2.699219 -6 -6 -6 z m 0 2 c 2.222656 0 4 1.777344 4 4 c 0 2.21875 -1.777344 4 -4 4 s -4 -1.78125 -4 -4 c 0 -2.222656 1.777344 -4 4 -4 z m 0 0"/>
    </g>
</svg>
