<svg id="svg" version="1.1" xmlns="http://www.w3.org/2000/svg" xmlns:xlink="http://www.w3.org/1999/xlink" width="400" height="400" viewBox="0, 0, 400,400"><g id="svgg"><path id="path0" d="M133.825 56.491 C 133.739 56.771,133.558 57.630,133.422 58.400 C 133.286 59.170,132.891 61.330,132.544 63.200 C 131.109 70.930,130.819 69.833,134.900 72.100 C 135.395 72.375,135.890 72.690,136.000 72.801 C 136.110 72.911,136.740 73.268,137.400 73.593 C 141.487 75.610,147.847 84.285,148.988 89.400 C 150.073 94.264,150.012 100.283,148.817 106.300 C 148.588 107.455,148.231 109.255,148.025 110.300 C 147.818 111.345,147.532 112.740,147.389 113.400 C 147.246 114.060,146.765 116.490,146.319 118.800 C 145.001 125.633,144.749 126.908,144.346 128.800 C 143.835 131.201,143.315 133.748,142.813 136.300 C 142.586 137.455,142.226 139.255,142.013 140.300 C 141.800 141.345,141.451 143.100,141.238 144.200 C 141.024 145.300,140.732 146.740,140.589 147.400 C 140.295 148.759,138.888 155.978,138.329 159.000 C 138.126 160.100,137.860 161.720,137.739 162.600 C 137.617 163.480,137.356 164.371,137.159 164.580 C 136.962 164.789,136.800 165.698,136.800 166.600 C 136.800 167.502,136.638 168.411,136.441 168.620 C 136.244 168.829,135.983 169.720,135.861 170.600 C 135.740 171.480,135.458 173.100,135.235 174.200 C 135.013 175.300,134.713 176.785,134.570 177.500 C 134.426 178.215,134.285 178.836,134.255 178.880 C 134.225 178.924,128.624 179.059,121.809 179.180 L 109.418 179.400 109.134 180.400 C 108.978 180.950,108.646 182.480,108.397 183.800 C 108.148 185.120,107.791 186.830,107.605 187.600 C 106.554 191.950,106.594 192.218,108.471 193.526 C 118.395 200.439,121.941 213.118,118.338 228.800 C 118.217 229.325,120.407 229.413,135.900 229.504 C 146.353 229.566,153.600 229.759,153.600 229.977 C 153.600 230.585,135.757 241.600,134.773 241.600 C 134.568 241.600,134.400 241.780,134.400 242.000 C 134.400 242.220,134.207 242.400,133.972 242.400 C 133.737 242.400,132.759 242.940,131.800 243.600 C 130.841 244.260,129.940 244.800,129.798 244.800 C 129.656 244.800,128.339 245.566,126.870 246.502 C 125.402 247.438,123.735 248.442,123.166 248.734 C 119.918 250.400,120.053 250.089,117.957 260.800 C 117.720 262.010,117.354 263.810,117.145 264.800 C 116.782 266.514,116.539 267.708,115.580 272.500 C 115.348 273.655,115.059 275.276,114.937 276.103 C 114.815 276.929,114.555 277.705,114.358 277.826 C 114.161 277.948,114.000 278.399,114.000 278.829 C 114.000 279.259,113.850 279.923,113.666 280.305 C 110.690 286.493,109.489 288.768,108.813 289.494 C 108.366 289.974,108.000 290.553,108.000 290.781 C 108.000 293.138,96.514 302.327,88.700 306.222 C 83.408 308.859,83.200 309.009,83.200 310.201 C 83.200 310.883,83.038 311.611,82.841 311.820 C 82.644 312.029,82.383 312.920,82.261 313.800 C 82.140 314.680,81.842 316.390,81.600 317.600 C 81.358 318.810,81.060 320.475,80.938 321.300 L 80.716 322.800 137.268 322.800 L 193.820 322.800 194.349 319.700 C 194.640 317.995,195.057 315.700,195.274 314.600 C 196.372 309.054,196.419 308.000,195.564 308.000 C 195.020 308.000,190.036 304.871,187.672 303.044 C 183.565 299.872,178.831 292.149,178.806 288.580 C 178.803 288.129,178.611 287.571,178.379 287.339 C 177.842 286.802,178.123 275.820,178.750 272.900 C 178.997 271.745,179.361 269.945,179.558 268.900 C 180.022 266.435,181.129 260.747,181.640 258.200 C 181.861 257.100,182.221 255.300,182.441 254.200 C 182.661 253.100,182.940 251.480,183.061 250.600 C 183.183 249.720,183.444 248.829,183.641 248.620 C 183.838 248.411,184.000 247.477,184.000 246.544 C 184.000 245.611,184.180 244.736,184.400 244.600 C 184.620 244.464,184.800 243.589,184.800 242.656 C 184.800 241.723,184.962 240.789,185.159 240.580 C 185.356 240.371,185.616 239.480,185.736 238.600 C 185.993 236.708,186.650 233.166,187.107 231.200 L 187.432 229.800 208.016 229.572 C 220.850 229.430,229.579 229.170,231.200 228.880 C 232.630 228.625,235.510 228.128,237.600 227.776 C 239.690 227.424,241.760 226.991,242.200 226.814 C 242.640 226.636,243.810 226.273,244.800 226.007 C 245.790 225.740,246.913 225.360,247.295 225.161 C 247.677 224.962,248.264 224.800,248.600 224.800 C 248.936 224.800,249.523 224.641,249.905 224.447 C 250.287 224.252,251.050 223.919,251.600 223.705 C 256.808 221.683,266.429 216.237,270.450 213.036 C 271.027 212.576,272.011 211.840,272.635 211.400 C 277.811 207.755,286.862 198.867,291.589 192.787 C 292.353 191.804,293.125 190.820,293.304 190.600 C 297.667 185.246,305.466 171.116,308.538 163.000 C 309.371 160.800,310.221 158.687,310.426 158.305 C 310.632 157.923,310.800 157.259,310.800 156.829 C 310.800 156.399,310.980 155.936,311.200 155.800 C 311.420 155.664,311.600 155.124,311.600 154.600 C 311.600 154.076,311.760 153.548,311.956 153.427 C 312.151 153.306,312.403 152.621,312.514 151.904 C 312.626 151.187,313.089 149.160,313.543 147.400 C 317.463 132.217,317.735 112.736,314.202 100.200 C 313.830 98.880,313.432 97.303,313.317 96.695 C 313.202 96.087,312.949 95.492,312.754 95.371 C 312.559 95.251,312.400 94.891,312.400 94.572 C 312.400 94.009,311.622 92.113,309.868 88.400 C 308.781 86.098,305.362 80.228,304.703 79.532 C 304.427 79.239,303.671 78.280,303.024 77.400 C 294.185 65.379,280.469 58.368,262.600 56.739 C 255.462 56.088,134.021 55.855,133.825 56.491 M239.567 108.327 C 251.886 112.775,257.182 127.874,252.569 145.400 C 252.222 146.720,251.840 148.208,251.721 148.706 C 251.602 149.204,251.346 149.710,251.152 149.830 C 250.959 149.949,250.800 150.329,250.800 150.672 C 250.800 151.778,246.727 159.704,244.569 162.800 C 239.450 170.142,231.665 175.929,224.200 177.940 C 219.325 179.253,198.927 179.774,197.376 178.624 C 196.716 178.135,196.675 177.927,197.100 177.230 C 197.375 176.779,197.600 175.699,197.600 174.829 C 197.600 173.959,197.780 173.136,198.000 173.000 C 198.220 172.864,198.400 171.989,198.400 171.056 C 198.400 170.123,198.562 169.189,198.759 168.980 C 198.956 168.771,199.217 167.880,199.339 167.000 C 199.550 165.465,200.059 162.746,200.611 160.200 C 200.909 158.823,202.332 151.519,202.850 148.700 C 203.043 147.655,203.387 145.855,203.617 144.700 C 203.846 143.545,204.127 141.970,204.241 141.200 C 204.356 140.430,204.607 139.440,204.800 139.000 C 204.993 138.560,205.244 137.570,205.359 136.800 C 205.473 136.030,205.748 134.500,205.971 133.400 C 206.193 132.300,206.549 130.500,206.762 129.400 C 206.976 128.300,207.268 126.860,207.411 126.200 C 207.705 124.841,209.112 117.622,209.671 114.600 C 209.874 113.500,210.140 111.880,210.261 111.000 C 210.383 110.120,210.644 109.229,210.841 109.020 C 211.038 108.811,211.200 108.307,211.200 107.899 C 211.200 106.637,235.917 107.009,239.567 108.327 M270.882 235.723 C 270.617 236.457,270.400 237.618,270.400 238.305 C 270.400 238.991,270.220 239.664,270.000 239.800 C 269.780 239.936,269.600 240.811,269.600 241.744 C 269.600 242.677,269.438 243.611,269.241 243.820 C 269.044 244.029,268.783 244.920,268.661 245.800 C 268.435 247.441,268.172 248.887,267.024 254.800 C 266.661 256.670,266.207 259.100,266.015 260.200 C 265.823 261.300,265.475 262.695,265.243 263.300 L 264.820 264.400 250.259 264.400 C 234.243 264.400,235.049 264.266,234.665 267.000 C 234.449 268.542,233.933 271.292,233.389 273.800 C 232.764 276.685,231.023 285.858,230.484 289.102 C 230.311 290.148,230.030 291.228,229.861 291.502 C 229.617 291.896,232.658 292.000,244.426 292.000 L 259.299 292.000 259.064 294.100 C 258.934 295.255,258.634 297.100,258.396 298.200 C 257.622 301.780,257.164 304.170,256.939 305.800 C 256.817 306.680,256.556 307.571,256.359 307.780 C 256.162 307.989,256.000 308.898,256.000 309.800 C 256.000 310.702,255.838 311.611,255.641 311.820 C 255.444 312.029,255.184 312.920,255.064 313.800 C 254.944 314.680,254.661 316.390,254.433 317.600 C 254.206 318.810,253.971 320.160,253.910 320.600 C 253.795 321.434,280.444 322.122,281.251 321.305 C 281.418 321.137,281.760 319.830,282.013 318.400 C 282.266 316.970,282.645 314.990,282.855 314.000 C 283.240 312.183,283.654 310.143,284.417 306.300 C 284.646 305.145,284.927 303.570,285.041 302.800 C 285.156 302.030,285.407 301.040,285.600 300.600 C 285.793 300.160,286.044 299.170,286.159 298.400 C 286.710 294.694,287.058 292.954,287.339 292.498 C 287.576 292.115,291.017 292.000,302.200 292.000 C 313.383 292.000,316.824 291.885,317.061 291.502 C 317.342 291.046,317.690 289.306,318.241 285.600 C 318.356 284.830,318.607 283.840,318.800 283.400 C 318.993 282.960,319.244 281.970,319.359 281.200 C 319.473 280.430,319.747 278.900,319.968 277.800 C 320.188 276.700,320.543 274.742,320.757 273.448 C 320.970 272.155,321.327 270.265,321.548 269.248 C 321.770 268.232,322.061 266.725,322.194 265.900 L 322.436 264.400 308.251 264.400 C 292.286 264.400,292.761 264.454,293.218 262.675 C 293.398 261.974,293.762 260.140,294.026 258.600 C 294.821 253.971,295.586 250.035,296.589 245.400 C 296.846 244.215,297.210 242.399,298.010 238.300 C 298.824 234.136,300.462 234.614,284.982 234.495 L 271.364 234.390 270.882 235.723 " stroke="none" fill="#040404" fill-rule="evenodd"></path><path id="path1" d="M114.900 0.291 C 113.305 0.370,112.000 0.607,112.000 0.818 C 112.000 1.028,111.010 1.200,109.800 1.200 C 108.590 1.200,107.600 1.380,107.600 1.600 C 107.600 1.820,106.790 2.000,105.800 2.000 C 104.810 2.000,104.000 2.180,104.000 2.400 C 104.000 2.620,103.201 2.800,102.224 2.800 C 101.247 2.800,100.349 2.959,100.229 3.153 C 100.109 3.347,98.839 3.631,97.406 3.785 C 95.973 3.938,94.800 4.229,94.800 4.432 C 94.800 4.634,94.260 4.800,93.600 4.800 C 92.940 4.800,92.400 4.980,92.400 5.200 C 92.400 5.420,92.127 5.600,91.794 5.600 C 90.824 5.600,88.000 6.566,88.000 6.897 C 88.000 7.064,87.460 7.200,86.800 7.200 C 86.140 7.200,85.600 7.380,85.600 7.600 C 85.600 7.820,85.150 8.000,84.600 8.000 C 84.050 8.000,83.600 8.180,83.600 8.400 C 83.600 8.620,83.240 8.800,82.800 8.800 C 82.360 8.800,82.000 8.980,82.000 9.200 C 82.000 9.420,81.460 9.600,80.800 9.600 C 80.140 9.600,79.600 9.760,79.600 9.955 C 79.600 10.151,78.970 10.429,78.200 10.574 C 77.430 10.718,76.800 11.008,76.800 11.218 C 76.800 11.428,76.440 11.600,76.000 11.600 C 75.560 11.600,75.200 11.780,75.200 12.000 C 75.200 12.220,74.947 12.400,74.638 12.400 C 73.881 12.400,70.800 14.065,70.800 14.474 C 70.800 14.653,70.440 14.800,70.000 14.800 C 69.560 14.800,69.200 14.980,69.200 15.200 C 69.200 15.420,68.840 15.600,68.400 15.600 C 67.960 15.600,67.600 15.780,67.600 16.000 C 67.600 16.220,67.240 16.400,66.800 16.400 C 66.360 16.400,66.000 16.560,66.000 16.757 C 66.000 16.953,65.550 17.226,65.000 17.364 C 64.450 17.502,64.000 17.792,64.000 18.008 C 64.000 18.223,63.640 18.400,63.200 18.400 C 62.760 18.400,62.400 18.580,62.400 18.800 C 62.400 19.020,62.080 19.200,61.688 19.200 C 61.297 19.200,60.717 19.560,60.400 20.000 C 60.083 20.440,59.543 20.800,59.200 20.800 C 58.857 20.800,58.317 21.160,58.000 21.600 C 57.683 22.040,57.233 22.400,57.000 22.400 C 56.767 22.400,56.317 22.760,56.000 23.200 C 55.683 23.640,55.146 24.000,54.808 24.000 C 54.469 24.000,53.707 24.450,53.113 25.000 C 52.520 25.550,51.867 26.000,51.662 26.000 C 51.458 26.000,50.865 26.538,50.345 27.196 C 49.825 27.854,49.208 28.394,48.974 28.396 C 48.739 28.398,47.479 29.386,46.174 30.591 C 44.868 31.796,43.662 32.786,43.492 32.791 C 43.091 32.803,32.803 43.091,32.791 43.492 C 32.786 43.662,31.796 44.868,30.591 46.174 C 29.386 47.479,28.398 48.739,28.396 48.974 C 28.394 49.208,27.854 49.825,27.196 50.345 C 26.538 50.865,26.000 51.458,26.000 51.662 C 26.000 51.867,25.550 52.520,25.000 53.113 C 24.450 53.707,24.000 54.469,24.000 54.808 C 24.000 55.146,23.640 55.683,23.200 56.000 C 22.760 56.317,22.400 56.767,22.400 57.000 C 22.400 57.233,22.040 57.683,21.600 58.000 C 21.160 58.317,20.800 58.857,20.800 59.200 C 20.800 59.543,20.440 60.083,20.000 60.400 C 19.560 60.717,19.200 61.297,19.200 61.688 C 19.200 62.080,19.020 62.400,18.800 62.400 C 18.580 62.400,18.400 62.760,18.400 63.200 C 18.400 63.640,18.223 64.000,18.008 64.000 C 17.792 64.000,17.502 64.450,17.364 65.000 C 17.226 65.550,16.953 66.000,16.757 66.000 C 16.560 66.000,16.400 66.360,16.400 66.800 C 16.400 67.240,16.220 67.600,16.000 67.600 C 15.780 67.600,15.600 67.960,15.600 68.400 C 15.600 68.840,15.420 69.200,15.200 69.200 C 14.980 69.200,14.800 69.560,14.800 70.000 C 14.800 70.440,14.653 70.800,14.474 70.800 C 14.065 70.800,12.400 73.881,12.400 74.638 C 12.400 74.947,12.220 75.200,12.000 75.200 C 11.780 75.200,11.600 75.560,11.600 76.000 C 11.600 76.440,11.428 76.800,11.218 76.800 C 11.008 76.800,10.718 77.430,10.574 78.200 C 10.429 78.970,10.151 79.600,9.955 79.600 C 9.760 79.600,9.600 80.140,9.600 80.800 C 9.600 81.460,9.420 82.000,9.200 82.000 C 8.980 82.000,8.800 82.360,8.800 82.800 C 8.800 83.240,8.620 83.600,8.400 83.600 C 8.180 83.600,8.000 84.050,8.000 84.600 C 8.000 85.150,7.820 85.600,7.600 85.600 C 7.380 85.600,7.200 86.140,7.200 86.800 C 7.200 87.460,7.064 88.000,6.897 88.000 C 6.566 88.000,5.600 90.824,5.600 91.794 C 5.600 92.127,5.420 92.400,5.200 92.400 C 4.980 92.400,4.800 92.940,4.800 93.600 C 4.800 94.260,4.634 94.800,4.432 94.800 C 4.229 94.800,3.938 95.973,3.785 97.406 C 3.631 98.839,3.347 100.109,3.153 100.229 C 2.959 100.349,2.800 101.247,2.800 102.224 C 2.800 103.201,2.620 104.000,2.400 104.000 C 2.180 104.000,2.000 104.810,2.000 105.800 C 2.000 106.790,1.820 107.600,1.600 107.600 C 1.380 107.600,1.200 108.575,1.200 109.767 C 1.200 111.144,1.018 111.994,0.700 112.100 C -0.035 112.345,-0.035 287.655,0.700 287.900 C 1.018 288.006,1.200 288.856,1.200 290.233 C 1.200 291.425,1.380 292.400,1.600 292.400 C 1.820 292.400,2.000 293.199,2.000 294.176 C 2.000 295.153,2.180 296.064,2.400 296.200 C 2.620 296.336,2.800 297.247,2.800 298.224 C 2.800 299.201,2.959 300.000,3.153 300.000 C 3.348 300.000,3.632 301.170,3.785 302.600 C 3.938 304.030,4.229 305.200,4.432 305.200 C 4.634 305.200,4.800 305.740,4.800 306.400 C 4.800 307.060,4.980 307.600,5.200 307.600 C 5.420 307.600,5.600 308.129,5.600 308.776 C 5.600 309.423,5.780 310.064,6.000 310.200 C 6.220 310.336,6.400 310.797,6.400 311.224 C 6.400 311.651,6.580 312.000,6.800 312.000 C 7.020 312.000,7.200 312.540,7.200 313.200 C 7.200 313.860,7.380 314.400,7.600 314.400 C 7.820 314.400,8.000 314.724,8.000 315.120 C 8.000 316.014,8.894 317.993,9.300 317.997 C 9.465 317.999,9.600 318.540,9.600 319.200 C 9.600 319.860,9.760 320.400,9.955 320.400 C 10.151 320.400,10.429 321.030,10.574 321.800 C 10.718 322.570,11.008 323.200,11.218 323.200 C 11.428 323.200,11.600 323.560,11.600 324.000 C 11.600 324.440,11.780 324.800,12.000 324.800 C 12.220 324.800,12.400 325.149,12.400 325.576 C 12.400 326.003,12.580 326.464,12.800 326.600 C 13.020 326.736,13.200 327.197,13.200 327.624 C 13.200 328.051,13.380 328.400,13.600 328.400 C 13.820 328.400,14.000 328.670,14.000 329.000 C 14.000 329.330,14.180 329.600,14.400 329.600 C 14.620 329.600,14.800 329.870,14.800 330.200 C 14.800 330.530,14.980 330.800,15.200 330.800 C 15.420 330.800,15.600 331.160,15.600 331.600 C 15.600 332.040,15.780 332.400,16.000 332.400 C 16.220 332.400,16.400 332.760,16.400 333.200 C 16.400 333.640,16.580 334.000,16.800 334.000 C 17.020 334.000,17.200 334.338,17.200 334.751 C 17.200 335.164,17.470 335.726,17.800 336.000 C 18.130 336.274,18.400 336.746,18.400 337.049 C 18.400 337.352,18.580 337.600,18.800 337.600 C 19.020 337.600,19.200 337.920,19.200 338.312 C 19.200 338.703,19.560 339.283,20.000 339.600 C 20.440 339.917,20.800 340.457,20.800 340.800 C 20.800 341.143,21.160 341.683,21.600 342.000 C 22.040 342.317,22.400 342.767,22.400 343.000 C 22.400 343.233,22.760 343.683,23.200 344.000 C 23.640 344.317,24.000 344.889,24.000 345.270 C 24.000 345.652,24.450 346.414,25.000 346.964 C 25.550 347.514,26.000 348.136,26.000 348.346 C 26.000 348.557,26.540 349.183,27.200 349.739 C 27.860 350.294,28.400 350.905,28.400 351.096 C 28.400 351.287,28.985 352.088,29.700 352.876 C 31.826 355.219,32.800 356.393,32.800 356.616 C 32.800 356.886,43.099 367.200,43.369 367.200 C 43.481 367.200,44.164 367.734,44.887 368.386 C 47.420 370.673,48.604 371.599,49.000 371.603 C 49.220 371.605,49.825 372.146,50.345 372.804 C 50.865 373.462,51.458 374.000,51.663 374.000 C 51.868 374.000,52.455 374.419,52.966 374.930 C 53.478 375.442,54.460 376.093,55.148 376.379 C 55.837 376.664,56.400 377.055,56.400 377.249 C 56.400 377.442,56.630 377.600,56.912 377.600 C 57.193 377.600,57.683 377.960,58.000 378.400 C 58.317 378.840,58.857 379.200,59.200 379.200 C 59.543 379.200,60.083 379.560,60.400 380.000 C 60.717 380.440,61.297 380.800,61.688 380.800 C 62.080 380.800,62.400 380.980,62.400 381.200 C 62.400 381.420,62.720 381.600,63.112 381.600 C 63.503 381.600,64.082 381.959,64.399 382.398 C 64.715 382.837,65.565 383.307,66.287 383.443 C 67.009 383.578,67.600 383.849,67.600 384.045 C 67.600 384.240,67.960 384.400,68.400 384.400 C 68.840 384.400,69.200 384.580,69.200 384.800 C 69.200 385.020,69.520 385.200,69.912 385.200 C 70.303 385.200,70.883 385.560,71.200 386.000 C 71.517 386.440,72.086 386.800,72.465 386.800 C 72.843 386.800,73.264 386.980,73.400 387.200 C 73.536 387.420,73.997 387.600,74.424 387.600 C 74.851 387.600,75.200 387.780,75.200 388.000 C 75.200 388.220,75.560 388.400,76.000 388.400 C 76.440 388.400,76.800 388.538,76.800 388.706 C 76.800 389.165,79.863 390.400,81.003 390.400 C 81.551 390.400,82.000 390.580,82.000 390.800 C 82.000 391.020,82.360 391.200,82.800 391.200 C 83.240 391.200,83.600 391.380,83.600 391.600 C 83.600 391.820,84.050 392.000,84.600 392.000 C 85.150 392.000,85.600 392.180,85.600 392.400 C 85.600 392.620,86.140 392.800,86.800 392.800 C 87.460 392.800,88.000 392.936,88.000 393.103 C 88.000 393.434,90.824 394.400,91.794 394.400 C 92.127 394.400,92.400 394.580,92.400 394.800 C 92.400 395.020,92.940 395.200,93.600 395.200 C 94.260 395.200,94.800 395.360,94.800 395.556 C 94.800 395.752,95.385 396.005,96.100 396.119 C 96.815 396.233,98.120 396.518,99.000 396.753 C 99.880 396.988,101.365 397.185,102.300 397.190 C 103.235 397.196,104.000 397.380,104.000 397.600 C 104.000 397.820,104.810 398.000,105.800 398.000 C 106.790 398.000,107.600 398.180,107.600 398.400 C 107.600 398.620,108.575 398.800,109.767 398.800 C 111.144 398.800,111.994 398.982,112.100 399.300 C 112.233 399.698,130.169 399.800,200.000 399.800 C 269.831 399.800,287.767 399.698,287.900 399.300 C 288.006 398.982,288.856 398.800,290.233 398.800 C 291.425 398.800,292.400 398.620,292.400 398.400 C 292.400 398.180,293.300 398.000,294.400 398.000 C 295.500 398.000,296.400 397.820,296.400 397.600 C 296.400 397.380,297.075 397.196,297.900 397.190 C 298.725 397.185,300.120 396.988,301.000 396.753 C 301.880 396.518,303.185 396.233,303.900 396.119 C 304.615 396.005,305.200 395.752,305.200 395.556 C 305.200 395.360,305.740 395.200,306.400 395.200 C 307.060 395.200,307.600 395.020,307.600 394.800 C 307.600 394.580,308.129 394.400,308.776 394.400 C 309.423 394.400,310.064 394.220,310.200 394.000 C 310.336 393.780,310.797 393.600,311.224 393.600 C 311.651 393.600,312.000 393.420,312.000 393.200 C 312.000 392.980,312.540 392.800,313.200 392.800 C 313.860 392.800,314.400 392.620,314.400 392.400 C 314.400 392.180,314.724 392.000,315.120 392.000 C 316.014 392.000,317.993 391.106,317.997 390.700 C 317.999 390.535,318.449 390.400,318.997 390.400 C 320.137 390.400,323.200 389.165,323.200 388.706 C 323.200 388.538,323.560 388.400,324.000 388.400 C 324.440 388.400,324.800 388.220,324.800 388.000 C 324.800 387.780,325.250 387.600,325.800 387.600 C 326.350 387.600,326.800 387.420,326.800 387.200 C 326.800 386.980,327.160 386.800,327.600 386.800 C 328.040 386.800,328.400 386.620,328.400 386.400 C 328.400 386.180,328.670 386.000,329.000 386.000 C 329.330 386.000,329.600 385.820,329.600 385.600 C 329.600 385.380,329.870 385.200,330.200 385.200 C 330.530 385.200,330.800 385.020,330.800 384.800 C 330.800 384.580,331.160 384.400,331.600 384.400 C 332.040 384.400,332.400 384.240,332.400 384.045 C 332.400 383.849,333.005 383.575,333.745 383.437 C 334.485 383.298,335.413 382.828,335.807 382.392 C 336.201 381.956,336.766 381.600,337.062 381.600 C 337.358 381.600,337.600 381.420,337.600 381.200 C 337.600 380.980,337.920 380.800,338.312 380.800 C 338.703 380.800,339.283 380.440,339.600 380.000 C 339.917 379.560,340.457 379.200,340.800 379.200 C 341.143 379.200,341.683 378.840,342.000 378.400 C 342.317 377.960,342.807 377.600,343.088 377.600 C 343.370 377.600,343.600 377.442,343.600 377.249 C 343.600 377.055,344.163 376.664,344.852 376.379 C 345.540 376.093,346.485 375.487,346.952 375.030 C 347.418 374.574,348.292 373.946,348.893 373.636 C 349.495 373.326,350.092 372.741,350.220 372.336 C 350.349 371.931,350.667 371.600,350.927 371.600 C 351.391 371.599,352.487 370.757,355.113 368.386 C 355.836 367.734,356.521 367.200,356.636 367.200 C 356.909 367.200,367.200 356.909,367.200 356.636 C 367.200 356.521,367.734 355.836,368.386 355.113 C 370.757 352.487,371.599 351.391,371.600 350.927 C 371.600 350.667,371.931 350.349,372.336 350.220 C 372.741 350.092,373.326 349.495,373.636 348.893 C 373.946 348.292,374.574 347.418,375.030 346.952 C 375.487 346.485,376.093 345.540,376.379 344.852 C 376.664 344.163,377.055 343.600,377.249 343.600 C 377.442 343.600,377.600 343.370,377.600 343.088 C 377.600 342.807,377.960 342.317,378.400 342.000 C 378.840 341.683,379.200 341.143,379.200 340.800 C 379.200 340.457,379.560 339.917,380.000 339.600 C 380.440 339.283,380.800 338.703,380.800 338.312 C 380.800 337.920,380.980 337.600,381.200 337.600 C 381.420 337.600,381.600 337.358,381.600 337.062 C 381.600 336.766,381.956 336.201,382.392 335.807 C 382.828 335.413,383.298 334.485,383.437 333.745 C 383.575 333.005,383.849 332.400,384.045 332.400 C 384.240 332.400,384.400 332.040,384.400 331.600 C 384.400 331.160,384.580 330.800,384.800 330.800 C 385.020 330.800,385.200 330.530,385.200 330.200 C 385.200 329.870,385.380 329.600,385.600 329.600 C 385.820 329.600,386.000 329.330,386.000 329.000 C 386.000 328.670,386.180 328.400,386.400 328.400 C 386.620 328.400,386.800 328.040,386.800 327.600 C 386.800 327.160,386.980 326.800,387.200 326.800 C 387.420 326.800,387.600 326.350,387.600 325.800 C 387.600 325.250,387.780 324.800,388.000 324.800 C 388.220 324.800,388.400 324.440,388.400 324.000 C 388.400 323.560,388.538 323.200,388.706 323.200 C 389.165 323.200,390.400 320.137,390.400 318.997 C 390.400 318.449,390.535 317.999,390.700 317.997 C 391.106 317.993,392.000 316.014,392.000 315.120 C 392.000 314.724,392.180 314.400,392.400 314.400 C 392.620 314.400,392.800 313.860,392.800 313.200 C 392.800 312.540,392.980 312.000,393.200 312.000 C 393.420 312.000,393.600 311.651,393.600 311.224 C 393.600 310.797,393.780 310.336,394.000 310.200 C 394.220 310.064,394.400 309.423,394.400 308.776 C 394.400 308.129,394.580 307.600,394.800 307.600 C 395.020 307.600,395.200 307.060,395.200 306.400 C 395.200 305.740,395.360 305.200,395.556 305.200 C 395.752 305.200,396.005 304.615,396.119 303.900 C 396.233 303.185,396.518 301.880,396.753 301.000 C 396.988 300.120,397.185 298.725,397.190 297.900 C 397.196 297.075,397.380 296.400,397.600 296.400 C 397.820 296.400,398.000 295.500,398.000 294.400 C 398.000 293.300,398.180 292.400,398.400 292.400 C 398.620 292.400,398.800 291.425,398.800 290.233 C 398.800 288.856,398.982 288.006,399.300 287.900 C 400.035 287.655,400.035 112.345,399.300 112.100 C 398.982 111.994,398.800 111.144,398.800 109.767 C 398.800 108.575,398.620 107.600,398.400 107.600 C 398.180 107.600,398.000 106.790,398.000 105.800 C 398.000 104.810,397.820 104.000,397.600 104.000 C 397.380 104.000,397.196 103.235,397.190 102.300 C 397.185 101.365,396.988 99.880,396.753 99.000 C 396.518 98.120,396.233 96.815,396.119 96.100 C 396.005 95.385,395.752 94.800,395.556 94.800 C 395.360 94.800,395.200 94.260,395.200 93.600 C 395.200 92.940,395.020 92.400,394.800 92.400 C 394.580 92.400,394.400 92.127,394.400 91.794 C 394.400 90.824,393.434 88.000,393.103 88.000 C 392.936 88.000,392.800 87.460,392.800 86.800 C 392.800 86.140,392.620 85.600,392.400 85.600 C 392.180 85.600,392.000 85.150,392.000 84.600 C 392.000 84.050,391.820 83.600,391.600 83.600 C 391.380 83.600,391.200 83.240,391.200 82.800 C 391.200 82.360,391.020 82.000,390.800 82.000 C 390.580 82.000,390.400 81.551,390.400 81.003 C 390.400 79.863,389.165 76.800,388.706 76.800 C 388.538 76.800,388.400 76.440,388.400 76.000 C 388.400 75.560,388.220 75.200,388.000 75.200 C 387.780 75.200,387.600 74.851,387.600 74.424 C 387.600 73.997,387.420 73.536,387.200 73.400 C 386.980 73.264,386.800 72.843,386.800 72.465 C 386.800 72.086,386.440 71.517,386.000 71.200 C 385.560 70.883,385.200 70.303,385.200 69.912 C 385.200 69.520,385.020 69.200,384.800 69.200 C 384.580 69.200,384.400 68.840,384.400 68.400 C 384.400 67.960,384.240 67.600,384.045 67.600 C 383.849 67.600,383.578 67.009,383.443 66.287 C 383.307 65.565,382.837 64.715,382.398 64.399 C 381.959 64.082,381.600 63.503,381.600 63.112 C 381.600 62.720,381.420 62.400,381.200 62.400 C 380.980 62.400,380.800 62.080,380.800 61.688 C 380.800 61.297,380.440 60.717,380.000 60.400 C 379.560 60.083,379.200 59.543,379.200 59.200 C 379.200 58.857,378.840 58.317,378.400 58.000 C 377.960 57.683,377.600 57.193,377.600 56.912 C 377.600 56.630,377.442 56.400,377.249 56.400 C 377.055 56.400,376.664 55.837,376.379 55.148 C 376.093 54.460,375.442 53.478,374.930 52.966 C 374.419 52.455,374.000 51.868,374.000 51.663 C 374.000 51.458,373.462 50.865,372.804 50.345 C 372.146 49.825,371.605 49.220,371.603 49.000 C 371.599 48.604,370.673 47.420,368.386 44.887 C 367.734 44.164,367.200 43.481,367.200 43.369 C 367.200 43.099,356.886 32.800,356.616 32.800 C 356.393 32.800,355.219 31.826,352.876 29.700 C 352.088 28.985,351.287 28.400,351.096 28.400 C 350.905 28.400,350.294 27.860,349.739 27.200 C 349.183 26.540,348.557 26.000,348.346 26.000 C 348.136 26.000,347.514 25.550,346.964 25.000 C 346.414 24.450,345.652 24.000,345.270 24.000 C 344.889 24.000,344.317 23.640,344.000 23.200 C 343.683 22.760,343.233 22.400,343.000 22.400 C 342.767 22.400,342.317 22.040,342.000 21.600 C 341.683 21.160,341.143 20.800,340.800 20.800 C 340.457 20.800,339.917 20.440,339.600 20.000 C 339.283 19.560,338.703 19.200,338.312 19.200 C 337.920 19.200,337.600 19.020,337.600 18.800 C 337.600 18.580,337.352 18.400,337.049 18.400 C 336.746 18.400,336.274 18.130,336.000 17.800 C 335.726 17.470,335.164 17.200,334.751 17.200 C 334.338 17.200,334.000 17.020,334.000 16.800 C 334.000 16.580,333.640 16.400,333.200 16.400 C 332.760 16.400,332.400 16.220,332.400 16.000 C 332.400 15.780,332.040 15.600,331.600 15.600 C 331.160 15.600,330.800 15.420,330.800 15.200 C 330.800 14.980,330.530 14.800,330.200 14.800 C 329.870 14.800,329.600 14.620,329.600 14.400 C 329.600 14.180,329.330 14.000,329.000 14.000 C 328.670 14.000,328.400 13.820,328.400 13.600 C 328.400 13.380,328.051 13.200,327.624 13.200 C 327.197 13.200,326.736 13.020,326.600 12.800 C 326.464 12.580,326.003 12.400,325.576 12.400 C 325.149 12.400,324.800 12.220,324.800 12.000 C 324.800 11.780,324.440 11.600,324.000 11.600 C 323.560 11.600,323.200 11.428,323.200 11.218 C 323.200 11.008,322.570 10.718,321.800 10.574 C 321.030 10.429,320.400 10.151,320.400 9.955 C 320.400 9.760,319.860 9.600,319.200 9.600 C 318.540 9.600,317.999 9.465,317.997 9.300 C 317.993 8.894,316.014 8.000,315.120 8.000 C 314.724 8.000,314.400 7.820,314.400 7.600 C 314.400 7.380,313.860 7.200,313.200 7.200 C 312.540 7.200,312.000 7.020,312.000 6.800 C 312.000 6.580,311.651 6.400,311.224 6.400 C 310.797 6.400,310.336 6.220,310.200 6.000 C 310.064 5.780,309.423 5.600,308.776 5.600 C 308.129 5.600,307.600 5.420,307.600 5.200 C 307.600 4.980,307.060 4.800,306.400 4.800 C 305.740 4.800,305.200 4.634,305.200 4.432 C 305.200 4.229,304.030 3.938,302.600 3.785 C 301.170 3.632,300.000 3.348,300.000 3.153 C 300.000 2.959,299.201 2.800,298.224 2.800 C 297.247 2.800,296.336 2.620,296.200 2.400 C 296.064 2.180,295.153 2.000,294.176 2.000 C 293.199 2.000,292.400 1.820,292.400 1.600 C 292.400 1.380,291.425 1.200,290.233 1.200 C 288.856 1.200,288.006 1.018,287.900 0.700 C 287.744 0.232,123.877 -0.156,114.900 0.291 M263.484 56.005 C 271.375 57.032,273.698 57.529,279.400 59.411 C 283.236 60.677,288.980 63.380,290.000 64.400 C 290.110 64.510,291.190 65.268,292.400 66.084 C 296.639 68.943,303.693 76.437,306.890 81.477 C 310.979 87.925,314.519 96.885,315.947 104.400 C 316.177 105.610,316.594 107.770,316.875 109.200 C 317.570 112.746,317.547 129.877,316.842 134.400 C 315.291 144.338,312.482 155.488,310.039 161.400 C 300.977 183.330,290.413 198.195,275.400 210.140 C 274.080 211.190,272.730 212.266,272.400 212.531 C 270.583 213.988,265.219 217.600,264.872 217.600 C 264.649 217.600,264.407 217.735,264.333 217.900 C 264.082 218.466,255.517 222.917,252.600 223.997 C 252.160 224.160,251.260 224.521,250.600 224.800 C 249.940 225.079,249.040 225.457,248.600 225.640 C 240.251 229.120,228.740 230.405,205.940 230.402 L 188.080 230.400 187.419 233.500 C 187.055 235.205,186.572 237.590,186.347 238.800 C 185.950 240.926,185.694 242.175,184.867 246.000 C 184.653 246.990,184.298 248.700,184.077 249.800 C 183.857 250.900,183.479 252.790,183.236 254.000 C 182.994 255.210,181.990 260.340,181.005 265.400 C 180.021 270.460,179.032 275.469,178.808 276.531 C 177.505 282.700,179.750 292.818,183.507 297.708 C 184.824 299.422,189.593 303.897,190.692 304.449 C 196.739 307.488,197.637 308.449,196.846 311.040 C 196.652 311.678,196.277 313.460,196.013 315.000 C 195.749 316.540,195.383 318.340,195.200 319.000 C 195.017 319.660,194.754 320.875,194.616 321.700 L 194.364 323.200 137.182 323.200 C 91.703 323.200,80.000 323.098,80.000 322.700 C 80.000 321.764,82.350 310.184,82.757 309.113 C 83.078 308.269,84.230 307.531,88.281 305.577 C 104.030 297.980,111.972 287.682,115.257 270.600 C 115.468 269.500,115.806 267.790,116.008 266.800 C 116.209 265.810,116.566 264.010,116.800 262.800 C 117.034 261.590,117.391 259.790,117.593 258.800 C 117.795 257.810,118.148 256.010,118.379 254.800 C 119.271 250.112,118.897 250.539,125.825 246.292 C 129.331 244.143,132.448 242.270,132.752 242.130 C 133.056 241.989,135.187 240.733,137.488 239.337 C 139.790 237.942,141.836 236.800,142.036 236.800 C 142.236 236.800,142.400 236.620,142.400 236.400 C 142.400 236.180,142.557 236.000,142.749 236.000 C 142.941 236.000,144.786 234.981,146.849 233.736 C 148.912 232.491,151.050 231.233,151.600 230.939 C 152.447 230.486,149.921 230.405,135.061 230.402 L 117.523 230.400 117.729 228.500 C 117.842 227.455,118.145 224.800,118.402 222.600 C 118.925 218.129,118.691 209.749,117.983 207.600 C 116.296 202.474,113.211 198.131,109.018 194.974 C 107.358 193.725,105.999 192.590,105.998 192.452 C 105.991 191.446,108.618 178.896,108.918 178.500 C 109.207 178.119,112.200 178.000,121.462 178.000 C 130.849 178.000,133.658 177.886,133.769 177.500 C 133.848 177.225,134.127 175.920,134.389 174.600 C 134.651 173.280,135.022 171.480,135.213 170.600 C 135.566 168.975,136.211 165.899,136.807 163.000 C 137.228 160.948,137.611 158.999,139.793 147.800 C 142.261 135.136,142.412 134.390,142.813 132.800 C 143.008 132.030,143.271 130.770,143.399 130.000 C 143.644 128.519,144.177 125.797,144.613 123.800 C 144.757 123.140,145.662 118.550,146.623 113.600 C 147.585 108.650,148.558 103.832,148.786 102.894 C 151.505 91.690,145.733 79.325,134.771 72.872 C 130.437 70.320,130.238 70.084,130.756 68.129 C 130.978 67.288,131.543 64.530,132.009 62.000 C 132.476 59.470,133.021 56.995,133.220 56.500 L 133.583 55.600 196.975 55.600 C 237.493 55.600,261.492 55.746,263.484 56.005 M211.266 110.500 C 210.992 111.875,210.595 113.553,210.384 114.228 C 210.173 114.904,210.000 115.846,210.000 116.323 C 210.000 116.799,209.814 117.956,209.586 118.894 C 209.241 120.318,206.082 135.958,204.717 143.000 C 204.504 144.100,204.175 145.720,203.986 146.600 C 203.797 147.480,203.537 148.740,203.408 149.400 C 202.786 152.576,202.229 155.366,200.330 164.800 C 199.201 170.410,198.196 175.675,198.097 176.500 L 197.916 178.000 209.412 178.000 C 216.354 178.000,221.559 177.829,222.554 177.568 C 226.496 176.535,227.545 176.155,230.000 174.870 C 238.802 170.263,245.457 162.336,250.037 151.000 C 255.870 136.560,254.029 120.398,245.673 112.708 C 241.187 108.579,238.470 108.000,223.591 108.000 L 211.765 108.000 211.266 110.500 M299.054 233.906 C 299.557 234.232,299.244 236.425,297.584 244.200 C 297.242 245.803,297.108 246.474,296.385 250.200 C 296.171 251.300,295.547 254.408,294.998 257.106 C 294.449 259.805,294.000 262.370,294.000 262.806 C 294.000 263.583,294.306 263.600,308.652 263.600 L 323.304 263.600 323.058 265.300 C 322.791 267.150,322.786 267.176,320.600 278.000 C 318.694 287.439,318.451 288.677,318.146 290.494 C 317.755 292.830,318.076 292.782,302.387 292.895 L 287.844 293.000 286.518 299.600 C 285.789 303.230,284.997 307.190,284.759 308.400 C 284.521 309.610,284.154 311.410,283.945 312.400 C 283.336 315.273,282.881 317.664,282.576 319.600 C 282.420 320.590,282.114 321.625,281.897 321.900 C 281.433 322.488,253.397 322.642,253.036 322.059 C 252.921 321.872,253.545 318.227,254.424 313.959 C 255.303 309.692,256.214 305.210,256.448 304.000 C 256.683 302.790,257.021 301.080,257.200 300.200 C 257.784 297.335,258.395 293.811,258.398 293.300 C 258.399 292.909,255.252 292.800,243.987 292.800 C 227.607 292.800,228.755 293.081,229.577 289.266 C 230.294 285.937,230.683 284.064,231.169 281.600 C 232.454 275.079,234.423 265.283,234.606 264.500 L 234.815 263.600 249.308 263.594 C 257.278 263.591,263.988 263.456,264.218 263.294 C 264.553 263.059,267.609 248.866,269.233 240.000 C 269.415 239.010,269.726 237.327,269.924 236.259 C 270.123 235.191,270.536 234.159,270.843 233.965 C 271.512 233.541,298.404 233.485,299.054 233.906 " stroke="none" fill="#fbfbfb" fill-rule="evenodd"></path><path id="path2" d="M257.600 56.408 C 259.394 56.740,264.684 56.932,264.367 56.654 C 264.275 56.573,262.310 56.410,260.000 56.291 C 257.194 56.147,256.398 56.186,257.600 56.408 M267.221 57.221 C 267.755 57.560,270.742 57.781,270.367 57.455 C 270.275 57.375,269.399 57.208,268.421 57.082 C 267.270 56.935,266.846 56.984,267.221 57.221 M271.600 57.994 C 271.930 58.211,272.635 58.391,273.167 58.394 C 274.451 58.402,274.125 58.175,272.400 57.858 C 271.415 57.677,271.178 57.718,271.600 57.994 M132.093 64.400 C 132.093 65.170,132.175 65.485,132.276 65.100 C 132.376 64.715,132.376 64.085,132.276 63.700 C 132.175 63.315,132.093 63.630,132.093 64.400 M131.293 68.400 C 131.293 69.170,131.375 69.485,131.476 69.100 C 131.576 68.715,131.576 68.085,131.476 67.700 C 131.375 67.315,131.293 67.630,131.293 68.400 M296.800 70.823 C 298.890 72.900,300.678 74.552,300.774 74.493 C 301.034 74.333,298.127 71.410,295.400 69.089 C 293.740 67.676,294.172 68.211,296.800 70.823 M141.600 77.400 C 143.017 78.830,144.267 80.000,144.377 80.000 C 144.487 80.000,143.417 78.830,142.000 77.400 C 140.583 75.970,139.333 74.800,139.223 74.800 C 139.113 74.800,140.183 75.970,141.600 77.400 M144.749 81.000 C 144.965 81.440,145.434 82.160,145.793 82.600 L 146.444 83.400 146.051 82.600 C 145.835 82.160,145.366 81.440,145.007 81.000 L 144.356 80.200 144.749 81.000 M149.058 91.200 C 149.375 92.925,149.602 93.251,149.594 91.967 C 149.591 91.435,149.411 90.730,149.194 90.400 C 148.918 89.978,148.877 90.215,149.058 91.200 M149.720 97.200 C 149.720 98.410,149.795 98.905,149.887 98.300 C 149.978 97.695,149.978 96.705,149.887 96.100 C 149.795 95.495,149.720 95.990,149.720 97.200 M149.260 102.467 C 149.227 103.054,149.096 103.864,148.970 104.267 C 148.752 104.960,148.765 104.961,149.195 104.290 C 149.446 103.899,149.577 103.089,149.486 102.490 L 149.320 101.400 149.260 102.467 M315.293 104.800 C 315.293 105.570,315.375 105.885,315.476 105.500 C 315.576 105.115,315.576 104.485,315.476 104.100 C 315.375 103.715,315.293 104.030,315.293 104.800 M148.446 106.867 C 148.421 107.234,148.296 107.864,148.170 108.267 C 147.952 108.962,147.963 108.963,148.397 108.287 C 148.648 107.896,148.773 107.266,148.673 106.887 C 148.511 106.268,148.488 106.266,148.446 106.867 M235.000 107.600 C 236.692 108.031,238.144 108.031,236.800 107.600 C 236.250 107.424,235.350 107.283,234.800 107.287 C 233.902 107.294,233.922 107.326,235.000 107.600 M316.040 109.633 C 316.062 110.605,316.225 111.850,316.402 112.400 C 316.595 113.000,316.637 112.360,316.506 110.800 C 316.251 107.762,315.982 107.089,316.040 109.633 M210.556 109.371 C 210.435 109.685,210.404 110.360,210.486 110.871 C 210.595 111.554,210.688 111.404,210.837 110.300 C 211.047 108.747,210.936 108.381,210.556 109.371 M209.849 113.015 C 209.712 113.373,209.623 114.236,209.650 114.933 C 209.692 115.987,209.750 115.898,209.999 114.400 C 210.317 112.486,210.259 111.948,209.849 113.015 M316.965 121.400 C 316.966 125.360,317.026 126.926,317.098 124.880 C 317.171 122.834,317.171 119.594,317.098 117.680 C 317.024 115.766,316.965 117.440,316.965 121.400 M208.860 118.467 C 208.827 119.054,208.696 119.864,208.570 120.267 C 208.352 120.960,208.365 120.961,208.795 120.290 C 209.046 119.899,209.177 119.089,209.086 118.490 L 208.920 117.400 208.860 118.467 M251.214 119.254 C 251.206 119.394,251.463 120.114,251.784 120.854 C 252.106 121.594,252.369 121.930,252.370 121.600 C 252.372 121.024,251.243 118.734,251.214 119.254 M208.054 122.667 C 208.025 123.144,207.896 123.864,207.770 124.267 C 207.552 124.961,207.564 124.962,207.996 124.288 C 208.247 123.897,208.375 123.177,208.281 122.688 C 208.109 121.801,208.109 121.801,208.054 122.667 M144.893 124.800 C 144.893 125.570,144.975 125.885,145.076 125.500 C 145.176 125.115,145.176 124.485,145.076 124.100 C 144.975 123.715,144.893 124.030,144.893 124.800 M252.856 124.000 C 252.856 124.330,253.011 124.960,253.200 125.400 C 253.417 125.904,253.544 125.978,253.544 125.600 C 253.544 125.270,253.389 124.640,253.200 124.200 C 252.983 123.696,252.856 123.622,252.856 124.000 M144.093 128.800 C 144.093 129.570,144.175 129.885,144.276 129.500 C 144.376 129.115,144.376 128.485,144.276 128.100 C 144.175 127.715,144.093 128.030,144.093 128.800 M254.140 133.200 C 254.140 135.070,254.209 135.835,254.293 134.900 C 254.377 133.965,254.377 132.435,254.293 131.500 C 254.209 130.565,254.140 131.330,254.140 133.200 M143.293 132.800 C 143.293 133.570,143.375 133.885,143.476 133.500 C 143.576 133.115,143.576 132.485,143.476 132.100 C 143.375 131.715,143.293 132.030,143.293 132.800 M316.120 134.000 C 316.120 135.210,316.195 135.705,316.287 135.100 C 316.378 134.495,316.378 133.505,316.287 132.900 C 316.195 132.295,316.120 132.790,316.120 134.000 M142.454 136.667 C 142.425 137.144,142.296 137.864,142.170 138.267 C 141.952 138.961,141.964 138.962,142.396 138.288 C 142.647 137.897,142.775 137.177,142.681 136.688 C 142.509 135.801,142.509 135.801,142.454 136.667 M315.264 139.067 C 315.229 139.764,315.096 140.664,314.970 141.067 C 314.753 141.759,314.765 141.760,315.194 141.091 C 315.445 140.702,315.577 139.802,315.489 139.091 L 315.328 137.800 315.264 139.067 M204.554 139.377 C 204.432 139.694,204.403 140.279,204.489 140.677 C 204.587 141.128,204.724 140.912,204.854 140.100 C 205.071 138.738,204.930 138.396,204.554 139.377 M141.646 140.867 C 141.621 141.234,141.496 141.864,141.370 142.267 C 141.152 142.962,141.163 142.963,141.597 142.287 C 141.848 141.896,141.973 141.266,141.873 140.887 C 141.711 140.268,141.688 140.266,141.646 140.867 M253.000 142.000 C 252.848 142.691,252.807 143.341,252.909 143.442 C 253.011 143.544,253.209 143.053,253.350 142.350 C 253.683 140.683,253.360 140.360,253.000 142.000 M203.849 143.015 C 203.712 143.373,203.621 144.146,203.646 144.733 C 203.680 145.532,203.770 145.398,204.004 144.200 C 204.335 142.500,204.262 141.940,203.849 143.015 M140.846 144.867 C 140.821 145.234,140.696 145.864,140.570 146.267 C 140.352 146.962,140.363 146.963,140.797 146.287 C 141.048 145.896,141.173 145.266,141.073 144.887 C 140.911 144.268,140.888 144.266,140.846 144.867 M203.049 147.015 C 202.912 147.373,202.823 148.236,202.850 148.933 C 202.892 149.987,202.950 149.898,203.199 148.400 C 203.517 146.486,203.459 145.948,203.049 147.015 M251.387 148.200 C 251.284 148.530,251.112 149.079,251.005 149.421 C 250.897 149.762,250.966 149.945,251.157 149.827 C 251.348 149.709,251.591 149.159,251.697 148.606 C 251.906 147.513,251.690 147.230,251.387 148.200 M202.060 152.467 C 202.027 153.054,201.896 153.864,201.770 154.267 C 201.552 154.960,201.565 154.961,201.995 154.290 C 202.246 153.899,202.377 153.089,202.286 152.490 L 202.120 151.400 202.060 152.467 M138.060 158.867 C 138.027 159.454,137.896 160.264,137.770 160.667 C 137.552 161.360,137.565 161.361,137.995 160.690 C 138.246 160.299,138.377 159.489,138.286 158.890 L 138.120 157.800 138.060 158.867 M244.800 162.000 C 244.330 162.660,244.036 163.200,244.146 163.200 C 244.256 163.200,244.730 162.660,245.200 162.000 C 245.670 161.340,245.964 160.800,245.854 160.800 C 245.744 160.800,245.270 161.340,244.800 162.000 M137.168 163.300 C 137.049 164.160,137.110 164.650,137.312 164.448 C 137.505 164.255,137.598 163.581,137.519 162.949 C 137.387 161.891,137.359 161.919,137.168 163.300 M307.913 164.581 C 307.542 165.581,307.317 166.400,307.414 166.400 C 307.693 166.400,308.831 163.494,308.703 163.109 C 308.639 162.918,308.284 163.580,307.913 164.581 M241.775 166.100 L 240.600 167.400 241.900 166.225 C 242.615 165.579,243.200 164.994,243.200 164.925 C 243.200 164.616,242.870 164.888,241.775 166.100 M136.352 167.513 C 136.221 168.307,136.279 168.681,136.501 168.459 C 136.703 168.257,136.801 167.667,136.719 167.146 C 136.593 166.345,136.537 166.402,136.352 167.513 M198.667 169.067 C 198.520 169.213,198.411 169.708,198.425 170.167 C 198.449 170.933,198.482 170.923,198.834 170.042 C 199.226 169.063,199.144 168.589,198.667 169.067 M237.375 170.500 L 236.200 171.800 237.500 170.625 C 238.215 169.979,238.800 169.394,238.800 169.325 C 238.800 169.016,238.470 169.288,237.375 170.500 M197.754 173.377 C 197.632 173.694,197.603 174.279,197.689 174.677 C 197.787 175.128,197.924 174.912,198.054 174.100 C 198.271 172.738,198.130 172.396,197.754 173.377 M134.846 174.867 C 134.821 175.234,134.696 175.864,134.570 176.267 C 134.352 176.962,134.363 176.963,134.797 176.287 C 135.048 175.896,135.173 175.266,135.073 174.887 C 134.911 174.268,134.888 174.266,134.846 174.867 M222.200 178.000 L 220.600 178.286 222.000 178.337 C 222.770 178.365,223.670 178.213,224.000 178.000 C 224.655 177.577,224.562 177.577,222.200 178.000 M109.043 179.433 C 108.658 180.435,108.758 180.609,109.300 179.879 C 109.746 179.279,111.080 179.194,121.600 179.096 L 133.400 178.987 121.343 178.894 C 110.662 178.811,109.258 178.872,109.043 179.433 M202.500 179.099 C 205.085 179.168,209.315 179.168,211.900 179.099 C 214.485 179.029,212.370 178.972,207.200 178.972 C 202.030 178.972,199.915 179.029,202.500 179.099 M300.253 180.100 L 299.533 181.400 300.358 180.400 C 301.089 179.513,301.414 178.800,301.086 178.800 C 301.024 178.800,300.649 179.385,300.253 180.100 M108.250 182.850 C 107.917 184.517,108.240 184.840,108.600 183.200 C 108.752 182.509,108.793 181.859,108.691 181.758 C 108.589 181.656,108.391 182.147,108.250 182.850 M107.429 187.029 C 107.281 187.615,107.238 188.172,107.332 188.266 C 107.427 188.360,107.624 187.958,107.771 187.371 C 107.919 186.785,107.962 186.228,107.868 186.134 C 107.773 186.040,107.576 186.442,107.429 187.029 M291.944 192.300 C 290.793 193.689,290.306 194.400,290.504 194.400 C 290.614 194.400,291.186 193.770,291.773 193.000 C 292.863 191.571,292.995 191.032,291.944 192.300 M110.373 195.295 C 111.128 196.116,111.833 196.701,111.939 196.594 C 112.046 196.487,112.057 196.355,111.965 196.300 C 111.872 196.245,111.167 195.660,110.398 195.001 L 109.000 193.802 110.373 195.295 M288.500 196.418 C 287.785 197.232,287.200 198.011,287.200 198.150 C 287.200 198.289,287.855 197.677,288.656 196.791 C 289.457 195.904,290.042 195.125,289.956 195.059 C 289.870 194.993,289.215 195.604,288.500 196.418 M283.391 202.100 L 280.200 205.400 283.500 202.209 C 285.315 200.455,286.800 198.970,286.800 198.909 C 286.800 198.618,286.354 199.035,283.391 202.100 M117.779 205.900 C 118.094 206.725,118.432 207.760,118.530 208.200 C 118.697 208.955,118.710 208.952,118.754 208.149 C 118.800 207.292,117.754 204.400,117.398 204.400 C 117.293 204.400,117.464 205.075,117.779 205.900 M277.771 207.303 L 276.600 208.597 277.800 207.599 C 278.460 207.049,279.075 206.555,279.167 206.500 C 279.258 206.445,279.245 206.312,279.138 206.204 C 279.030 206.096,278.415 206.591,277.771 207.303 M119.355 216.200 C 119.356 219.060,119.420 220.178,119.497 218.683 C 119.574 217.189,119.574 214.849,119.496 213.483 C 119.418 212.118,119.355 213.340,119.355 216.200 M270.522 213.029 L 269.400 214.058 270.700 213.154 C 271.415 212.657,272.000 212.193,272.000 212.125 C 272.000 211.809,271.558 212.080,270.522 213.029 M118.509 226.000 C 118.509 226.990,118.587 227.395,118.682 226.900 C 118.778 226.405,118.778 225.595,118.682 225.100 C 118.587 224.605,118.509 225.010,118.509 226.000 M232.700 228.682 C 233.195 228.778,234.005 228.778,234.500 228.682 C 234.995 228.587,234.590 228.509,233.600 228.509 C 232.610 228.509,232.205 228.587,232.700 228.682 M118.000 229.692 C 118.000 229.852,126.010 230.032,135.800 230.092 C 145.590 230.151,153.600 230.069,153.600 229.908 C 153.600 229.748,145.590 229.568,135.800 229.508 C 126.010 229.449,118.000 229.531,118.000 229.692 M223.913 229.495 C 225.076 229.576,226.876 229.576,227.913 229.493 C 228.951 229.411,228.000 229.345,225.800 229.346 C 223.600 229.347,222.751 229.414,223.913 229.495 M187.461 229.900 C 187.292 230.173,199.689 230.167,215.000 229.887 C 218.300 229.827,213.496 229.738,204.324 229.689 C 195.152 229.640,187.564 229.735,187.461 229.900 M186.629 233.029 C 186.481 233.615,186.438 234.172,186.532 234.266 C 186.627 234.360,186.824 233.958,186.971 233.371 C 187.119 232.785,187.162 232.228,187.068 232.134 C 186.973 232.040,186.776 232.442,186.629 233.029 M147.500 233.829 C 146.005 234.640,146.096 234.978,147.600 234.200 C 148.260 233.859,148.800 233.494,148.800 233.390 C 148.800 233.132,148.757 233.147,147.500 233.829 M270.779 235.055 C 270.558 235.636,270.464 236.197,270.569 236.303 C 270.675 236.408,270.880 236.019,271.026 235.437 L 271.292 234.380 285.008 234.490 C 292.552 234.550,298.641 234.465,298.538 234.300 C 298.436 234.135,292.239 234.000,284.766 234.000 L 271.180 234.000 270.779 235.055 M298.249 236.615 C 298.112 236.973,298.018 237.656,298.041 238.133 C 298.067 238.681,298.203 238.486,298.410 237.603 C 298.760 236.116,298.665 235.533,298.249 236.615 M185.849 237.015 C 185.712 237.373,185.615 237.966,185.634 238.333 C 185.653 238.700,185.827 238.469,186.021 237.820 C 186.398 236.558,186.265 235.933,185.849 237.015 M269.968 238.500 C 269.849 239.360,269.910 239.850,270.112 239.648 C 270.305 239.455,270.398 238.781,270.319 238.149 C 270.187 237.091,270.159 237.119,269.968 238.500 M137.200 240.036 C 136.536 240.579,136.469 240.715,137.000 240.440 C 138.305 239.766,139.028 239.212,138.600 239.215 C 138.380 239.217,137.750 239.586,137.200 240.036 M297.449 240.615 C 297.312 240.973,297.221 241.746,297.246 242.333 C 297.280 243.132,297.370 242.998,297.604 241.800 C 297.935 240.100,297.862 239.540,297.449 240.615 M269.152 242.713 C 269.021 243.507,269.079 243.881,269.301 243.659 C 269.503 243.457,269.601 242.867,269.519 242.346 C 269.393 241.545,269.337 241.602,269.152 242.713 M130.600 244.000 C 129.940 244.437,129.580 244.792,129.800 244.788 C 130.201 244.782,132.376 243.223,132.000 243.212 C 131.890 243.208,131.260 243.563,130.600 244.000 M296.634 244.900 C 296.149 247.309,296.036 248.561,296.354 248.000 C 296.541 247.670,296.791 246.635,296.909 245.700 C 297.135 243.914,296.944 243.359,296.634 244.900 M184.154 244.977 C 184.032 245.294,184.003 245.879,184.089 246.277 C 184.187 246.728,184.324 246.512,184.454 245.700 C 184.671 244.338,184.530 243.996,184.154 244.977 M268.446 246.067 C 268.421 246.434,268.296 247.064,268.170 247.467 C 267.952 248.162,267.963 248.163,268.397 247.487 C 268.648 247.096,268.773 246.466,268.673 246.087 C 268.511 245.468,268.488 245.466,268.446 246.067 M183.356 248.971 C 183.235 249.285,183.204 249.960,183.286 250.471 C 183.395 251.154,183.488 251.004,183.637 249.900 C 183.847 248.347,183.736 247.981,183.356 248.971 M120.369 250.369 C 119.590 251.148,119.214 251.916,119.241 252.669 C 119.279 253.732,119.302 253.717,119.609 252.408 C 119.789 251.642,120.446 250.608,121.068 250.110 C 121.691 249.611,122.051 249.203,121.869 249.202 C 121.687 249.201,121.012 249.726,120.369 250.369 M267.429 251.029 C 267.281 251.615,267.238 252.172,267.332 252.266 C 267.427 252.360,267.624 251.958,267.771 251.371 C 267.919 250.785,267.962 250.228,267.868 250.134 C 267.773 250.040,267.576 250.442,267.429 251.029 M182.649 252.615 C 182.512 252.973,182.421 253.746,182.446 254.333 C 182.480 255.132,182.570 254.998,182.804 253.800 C 183.135 252.100,183.062 251.540,182.649 252.615 M294.893 254.000 C 294.893 254.770,294.975 255.085,295.076 254.700 C 295.176 254.315,295.176 253.685,295.076 253.300 C 294.975 252.915,294.893 253.230,294.893 254.000 M118.649 255.415 C 118.512 255.773,118.421 256.546,118.446 257.133 C 118.480 257.932,118.570 257.798,118.804 256.600 C 119.135 254.900,119.062 254.340,118.649 255.415 M181.693 258.000 C 181.693 258.770,181.775 259.085,181.876 258.700 C 181.976 258.315,181.976 257.685,181.876 257.300 C 181.775 256.915,181.693 257.230,181.693 258.000 M294.049 257.800 C 294.016 258.240,293.896 259.050,293.783 259.600 L 293.577 260.600 294.006 259.619 C 294.242 259.079,294.361 258.269,294.272 257.819 C 294.113 257.021,294.107 257.021,294.049 257.800 M265.693 260.400 C 265.693 261.170,265.775 261.485,265.876 261.100 C 265.976 260.715,265.976 260.085,265.876 259.700 C 265.775 259.315,265.693 259.630,265.693 260.400 M117.693 260.800 C 117.693 261.570,117.775 261.885,117.876 261.500 C 117.976 261.115,117.976 260.485,117.876 260.100 C 117.775 259.715,117.693 260.030,117.693 260.800 M264.976 262.953 L 264.713 264.000 250.389 264.000 C 236.172 264.000,234.800 264.081,234.800 264.923 C 234.800 265.215,234.959 265.201,235.280 264.880 C 235.636 264.524,239.522 264.400,250.290 264.400 L 264.820 264.400 265.221 263.345 C 265.442 262.764,265.536 262.203,265.431 262.097 C 265.325 261.992,265.121 262.377,264.976 262.953 M116.893 264.800 C 116.893 265.570,116.975 265.885,117.076 265.500 C 117.176 265.115,117.176 264.485,117.076 264.100 C 116.975 263.715,116.893 264.030,116.893 264.800 M293.200 263.956 C 293.602 264.245,298.506 264.390,308.067 264.394 C 319.101 264.399,322.379 264.513,322.535 264.900 C 322.656 265.199,322.750 265.118,322.768 264.700 C 322.798 264.046,321.861 264.000,308.433 264.000 C 300.531 264.000,293.736 263.893,293.333 263.762 C 292.723 263.565,292.701 263.597,293.200 263.956 M322.093 266.800 C 322.093 267.570,322.175 267.885,322.276 267.500 C 322.376 267.115,322.376 266.485,322.276 266.100 C 322.175 265.715,322.093 266.030,322.093 266.800 M179.829 267.029 C 179.681 267.615,179.638 268.172,179.732 268.266 C 179.827 268.360,180.024 267.958,180.171 267.371 C 180.319 266.785,180.362 266.228,180.268 266.134 C 180.173 266.040,179.976 266.442,179.829 267.029 M116.054 268.667 C 116.025 269.144,115.896 269.864,115.770 270.267 C 115.552 270.961,115.564 270.962,115.996 270.288 C 116.247 269.897,116.375 269.177,116.281 268.688 C 116.109 267.801,116.109 267.801,116.054 268.667 M321.249 270.600 C 321.216 271.040,321.096 271.850,320.983 272.400 L 320.777 273.400 321.206 272.419 C 321.442 271.879,321.561 271.069,321.472 270.619 C 321.313 269.821,321.307 269.821,321.249 270.600 M179.049 271.015 C 178.912 271.373,178.815 271.966,178.834 272.333 C 178.853 272.700,179.027 272.469,179.221 271.820 C 179.598 270.558,179.465 269.933,179.049 271.015 M115.246 272.867 C 115.221 273.234,115.096 273.864,114.970 274.267 C 114.752 274.962,114.763 274.963,115.197 274.287 C 115.448 273.896,115.573 273.266,115.473 272.887 C 115.311 272.268,115.288 272.266,115.246 272.867 M178.093 276.400 C 178.093 277.170,178.175 277.485,178.276 277.100 C 178.376 276.715,178.376 276.085,178.276 275.700 C 178.175 275.315,178.093 275.630,178.093 276.400 M231.849 279.815 C 231.712 280.173,231.621 280.946,231.646 281.533 C 231.680 282.332,231.770 282.198,232.004 281.000 C 232.335 279.300,232.262 278.740,231.849 279.815 M230.864 285.067 C 230.829 285.764,230.696 286.664,230.570 287.067 C 230.353 287.759,230.365 287.760,230.794 287.091 C 231.045 286.702,231.177 285.802,231.089 285.091 L 230.928 283.800 230.864 285.067 M178.000 285.976 C 178.000 286.623,178.142 287.241,178.316 287.348 C 178.490 287.456,178.561 286.927,178.473 286.172 C 178.276 284.491,178.000 284.377,178.000 285.976 M109.453 287.991 C 108.874 288.867,108.400 289.717,108.400 289.880 C 108.400 290.044,108.642 289.823,108.939 289.389 C 110.241 287.481,110.878 286.400,110.699 286.400 C 110.593 286.400,110.032 287.116,109.453 287.991 M317.849 287.415 C 317.712 287.773,317.618 288.456,317.641 288.933 C 317.667 289.481,317.803 289.286,318.010 288.403 C 318.360 286.916,318.265 286.333,317.849 287.415 M230.060 289.267 C 230.027 289.854,229.896 290.664,229.770 291.067 C 229.552 291.760,229.565 291.761,229.995 291.090 C 230.246 290.699,230.377 289.889,230.286 289.290 L 230.120 288.200 230.060 289.267 M317.062 291.383 C 316.854 291.923,315.015 292.000,302.227 292.000 C 286.475 292.000,286.705 291.969,286.832 294.074 C 286.849 294.363,287.044 294.105,287.265 293.500 L 287.667 292.400 302.184 292.400 C 316.641 292.400,318.738 292.205,317.506 290.973 C 317.392 290.859,317.192 291.043,317.062 291.383 M244.477 292.300 L 258.754 292.410 258.907 294.105 L 259.060 295.800 259.130 293.900 L 259.200 292.000 244.700 292.095 L 230.200 292.190 244.477 292.300 M102.812 296.193 L 99.825 299.400 102.994 296.315 C 104.737 294.618,106.082 293.175,105.982 293.108 C 105.882 293.041,104.456 294.429,102.812 296.193 M258.060 298.067 C 258.027 298.654,257.896 299.464,257.770 299.867 C 257.552 300.560,257.565 300.561,257.995 299.890 C 258.246 299.499,258.377 298.689,258.286 298.090 L 258.120 297.000 258.060 298.067 M97.600 300.849 C 96.206 302.071,96.205 302.072,97.488 301.219 C 98.196 300.748,98.882 300.191,99.012 299.981 C 99.397 299.357,99.077 299.554,97.600 300.849 M285.467 300.667 C 285.320 300.813,285.211 301.308,285.225 301.767 C 285.249 302.533,285.282 302.523,285.634 301.642 C 286.026 300.663,285.944 300.189,285.467 300.667 M257.260 302.067 C 257.227 302.654,257.096 303.464,256.970 303.867 C 256.752 304.560,256.765 304.561,257.195 303.890 C 257.446 303.499,257.577 302.689,257.486 302.090 L 257.320 301.000 257.260 302.067 M94.600 302.800 C 93.940 303.237,93.580 303.592,93.800 303.588 C 94.201 303.582,96.376 302.023,96.000 302.012 C 95.890 302.008,95.260 302.363,94.600 302.800 M284.649 304.615 C 284.512 304.973,284.418 305.656,284.441 306.133 C 284.467 306.681,284.603 306.486,284.810 305.603 C 285.160 304.116,285.065 303.533,284.649 304.615 M190.600 305.090 C 190.820 305.300,191.720 305.876,192.600 306.370 C 193.480 306.865,193.840 306.970,193.400 306.604 C 192.506 305.861,189.972 304.491,190.600 305.090 M256.352 306.713 C 256.221 307.507,256.279 307.881,256.501 307.659 C 256.703 307.457,256.801 306.867,256.719 306.346 C 256.593 305.545,256.537 305.602,256.352 306.713 M283.849 308.615 C 283.712 308.973,283.621 309.746,283.646 310.333 C 283.680 311.132,283.770 310.998,284.004 309.800 C 284.335 308.100,284.262 307.540,283.849 308.615 M82.752 310.713 C 82.621 311.507,82.679 311.881,82.901 311.659 C 83.103 311.457,83.201 310.867,83.119 310.346 C 82.993 309.545,82.937 309.602,82.752 310.713 M196.093 310.800 C 196.093 311.570,196.175 311.885,196.276 311.500 C 196.376 311.115,196.376 310.485,196.276 310.100 C 196.175 309.715,196.093 310.030,196.093 310.800 M282.893 314.000 C 282.893 314.770,282.975 315.085,283.076 314.700 C 283.176 314.315,283.176 313.685,283.076 313.300 C 282.975 312.915,282.893 313.230,282.893 314.000 M195.293 314.800 C 195.293 315.570,195.375 315.885,195.476 315.500 C 195.576 315.115,195.576 314.485,195.476 314.100 C 195.375 313.715,195.293 314.030,195.293 314.800 M254.846 314.067 C 254.821 314.434,254.696 315.064,254.570 315.467 C 254.352 316.162,254.363 316.163,254.797 315.487 C 255.048 315.096,255.173 314.466,255.073 314.087 C 254.911 313.468,254.888 313.466,254.846 314.067 M282.093 318.000 C 282.093 318.770,282.175 319.085,282.276 318.700 C 282.376 318.315,282.376 317.685,282.276 317.300 C 282.175 316.915,282.093 317.230,282.093 318.000 M194.454 318.667 C 194.425 319.144,194.296 319.864,194.170 320.267 C 193.952 320.961,193.964 320.962,194.396 320.288 C 194.647 319.897,194.775 319.177,194.681 318.688 C 194.509 317.801,194.509 317.801,194.454 318.667 M253.829 319.029 C 253.681 319.615,253.638 320.172,253.732 320.266 C 253.827 320.360,254.024 319.958,254.171 319.371 C 254.319 318.785,254.362 318.228,254.268 318.134 C 254.173 318.040,253.976 318.442,253.829 319.029 M253.600 321.700 C 253.600 321.865,259.799 322.000,267.376 322.000 C 274.953 322.000,281.236 321.865,281.338 321.700 C 281.440 321.535,275.241 321.400,267.562 321.400 C 259.883 321.400,253.600 321.535,253.600 321.700 M109.331 323.100 C 124.913 323.158,150.293 323.158,165.731 323.100 C 181.169 323.042,168.420 322.995,137.400 322.995 C 106.380 322.995,93.749 323.042,109.331 323.100 " stroke="none" fill="#747474" fill-rule="evenodd"></path><path id="path3" d="M164.300 55.900 C 181.075 55.958,208.525 55.958,225.300 55.900 C 242.075 55.842,228.350 55.795,194.800 55.795 C 161.250 55.795,147.525 55.842,164.300 55.900 M298.383 71.700 C 299.364 72.745,300.219 73.600,300.283 73.600 C 300.584 73.600,300.266 73.241,298.500 71.583 L 296.600 69.800 298.383 71.700 M217.123 107.499 C 219.831 107.568,224.151 107.568,226.723 107.499 C 229.295 107.429,227.080 107.372,221.800 107.373 C 216.520 107.373,214.415 107.430,217.123 107.499 M253.734 133.200 C 253.734 134.850,253.805 135.525,253.891 134.700 C 253.978 133.875,253.978 132.525,253.891 131.700 C 253.805 130.875,253.734 131.550,253.734 133.200 M253.361 321.200 L 253.400 322.200 267.300 322.208 L 281.200 322.216 267.426 322.103 L 253.652 321.990 253.487 321.095 C 253.346 320.326,253.328 320.340,253.361 321.200 " stroke="none" fill="#a2a2a2" fill-rule="evenodd"></path><path id="path4" d="M231.700 107.476 C 232.085 107.576,232.715 107.576,233.100 107.476 C 233.485 107.375,233.170 107.293,232.400 107.293 C 231.630 107.293,231.315 107.375,231.700 107.476 M115.500 178.699 C 118.855 178.766,124.345 178.766,127.700 178.699 C 131.055 178.632,128.310 178.578,121.600 178.578 C 114.890 178.578,112.145 178.632,115.500 178.699 M202.900 178.699 C 205.705 178.768,210.295 178.768,213.100 178.699 C 215.905 178.630,213.610 178.574,208.000 178.574 C 202.390 178.574,200.095 178.630,202.900 178.699 M178.137 281.400 C 178.139 283.160,178.209 283.830,178.293 282.889 C 178.378 281.949,178.377 280.509,178.291 279.689 C 178.205 278.870,178.136 279.640,178.137 281.400 " stroke="none" fill="#848484" fill-rule="evenodd"></path><path id="path5" d="M257.111 55.893 C 258.051 55.978,259.491 55.977,260.311 55.891 C 261.130 55.805,260.360 55.736,258.600 55.737 C 256.840 55.739,256.170 55.809,257.111 55.893 M262.500 56.276 C 262.885 56.376,263.515 56.376,263.900 56.276 C 264.285 56.175,263.970 56.093,263.200 56.093 C 262.430 56.093,262.115 56.175,262.500 56.276 M267.600 56.800 C 268.150 56.976,268.960 57.120,269.400 57.120 C 270.033 57.120,269.992 57.054,269.200 56.800 C 268.650 56.624,267.840 56.480,267.400 56.480 C 266.767 56.480,266.808 56.546,267.600 56.800 M272.200 57.600 C 272.640 57.789,273.270 57.944,273.600 57.944 C 273.978 57.944,273.904 57.817,273.400 57.600 C 272.960 57.411,272.330 57.256,272.000 57.256 C 271.622 57.256,271.696 57.383,272.200 57.600 M131.450 64.450 C 131.117 66.117,131.440 66.440,131.800 64.800 C 131.952 64.109,131.993 63.459,131.891 63.358 C 131.789 63.256,131.591 63.747,131.450 64.450 M295.173 68.495 C 295.928 69.316,296.633 69.901,296.739 69.794 C 296.846 69.687,296.857 69.555,296.765 69.500 C 296.672 69.445,295.967 68.860,295.198 68.201 L 293.800 67.002 295.173 68.495 M130.619 68.665 C 130.415 69.479,130.566 69.927,131.261 70.565 L 132.170 71.400 131.466 70.547 C 130.984 69.964,130.844 69.363,131.024 68.647 C 131.168 68.071,131.197 67.600,131.087 67.600 C 130.977 67.600,130.766 68.079,130.619 68.665 M300.400 73.725 C 300.400 73.794,300.985 74.379,301.700 75.025 L 303.000 76.200 301.825 74.900 C 300.730 73.688,300.400 73.416,300.400 73.725 M305.143 79.500 C 305.644 80.215,306.139 80.800,306.241 80.800 C 306.587 80.800,305.650 79.340,304.937 78.767 C 304.436 78.365,304.496 78.578,305.143 79.500 M148.456 90.800 C 148.456 91.130,148.611 91.760,148.800 92.200 C 149.017 92.704,149.144 92.778,149.144 92.400 C 149.144 92.070,148.989 91.440,148.800 91.000 C 148.583 90.496,148.456 90.422,148.456 90.800 M149.301 97.400 C 149.305 98.280,149.387 98.593,149.483 98.095 C 149.579 97.598,149.575 96.878,149.475 96.495 C 149.375 96.113,149.296 96.520,149.301 97.400 M314.856 100.800 C 314.856 101.130,315.011 101.760,315.200 102.200 C 315.417 102.704,315.544 102.778,315.544 102.400 C 315.544 102.070,315.389 101.440,315.200 101.000 C 314.983 100.496,314.856 100.422,314.856 100.800 M148.600 103.200 C 148.448 103.891,148.407 104.541,148.509 104.642 C 148.611 104.744,148.809 104.253,148.950 103.550 C 149.283 101.883,148.960 101.560,148.600 103.200 M217.300 107.899 C 220.545 107.966,225.855 107.966,229.100 107.899 C 232.345 107.832,229.690 107.777,223.200 107.777 C 216.710 107.777,214.055 107.832,217.300 107.899 M236.800 108.400 C 238.168 108.838,239.219 108.838,238.200 108.400 C 237.760 108.211,237.040 108.062,236.600 108.068 C 235.957 108.077,235.996 108.143,236.800 108.400 M316.672 110.200 C 316.799 111.300,316.969 112.275,317.051 112.367 C 317.332 112.682,317.120 110.199,316.780 109.200 C 316.551 108.526,316.516 108.851,316.672 110.200 M211.029 109.829 C 210.881 110.415,210.838 110.972,210.932 111.066 C 211.027 111.160,211.224 110.758,211.371 110.171 C 211.519 109.585,211.562 109.028,211.468 108.934 C 211.373 108.840,211.176 109.242,211.029 109.829 M245.971 113.021 C 246.836 113.803,248.115 115.333,248.814 116.421 C 250.219 118.612,250.858 119.119,249.723 117.142 C 248.835 115.598,245.254 111.600,244.759 111.600 C 244.560 111.600,245.106 112.240,245.971 113.021 M317.358 121.400 C 317.358 124.480,317.421 125.687,317.497 124.082 C 317.573 122.478,317.573 119.958,317.496 118.482 C 317.419 117.007,317.357 118.320,317.358 121.400 M209.429 117.829 C 209.281 118.415,209.238 118.972,209.332 119.066 C 209.427 119.160,209.624 118.758,209.771 118.171 C 209.919 117.585,209.962 117.028,209.868 116.934 C 209.773 116.840,209.576 117.242,209.429 117.829 M208.600 122.000 C 208.448 122.691,208.407 123.341,208.509 123.442 C 208.611 123.544,208.809 123.053,208.950 122.350 C 209.283 120.683,208.960 120.360,208.600 122.000 M144.273 124.953 C 144.123 125.345,144.011 125.966,144.025 126.333 C 144.042 126.775,144.181 126.674,144.437 126.034 C 144.649 125.503,144.761 124.882,144.685 124.654 C 144.609 124.427,144.424 124.561,144.273 124.953 M253.301 129.400 C 253.305 130.280,253.387 130.593,253.483 130.095 C 253.579 129.598,253.575 128.878,253.475 128.495 C 253.375 128.113,253.296 128.520,253.301 129.400 M143.473 128.953 C 143.323 129.345,143.211 129.966,143.225 130.333 C 143.242 130.775,143.381 130.674,143.637 130.034 C 143.849 129.503,143.961 128.882,143.885 128.654 C 143.809 128.427,143.624 128.561,143.473 128.953 M316.633 132.833 C 316.483 133.966,316.441 134.974,316.539 135.072 C 316.637 135.171,316.845 134.328,317.000 133.200 C 317.155 132.072,317.198 131.064,317.094 130.961 C 316.991 130.858,316.784 131.700,316.633 132.833 M142.649 133.015 C 142.512 133.373,142.415 133.966,142.434 134.333 C 142.453 134.700,142.627 134.469,142.821 133.820 C 143.198 132.558,143.065 131.933,142.649 133.015 M141.800 137.200 C 141.648 137.891,141.607 138.541,141.709 138.642 C 141.811 138.744,142.009 138.253,142.150 137.550 C 142.483 135.883,142.160 135.560,141.800 137.200 M253.293 137.200 C 253.293 137.970,253.375 138.285,253.476 137.900 C 253.576 137.515,253.576 136.885,253.476 136.500 C 253.375 136.115,253.293 136.430,253.293 137.200 M315.822 138.622 C 315.672 139.425,315.628 140.162,315.726 140.260 C 315.824 140.357,316.027 139.781,316.178 138.978 C 316.328 138.175,316.372 137.438,316.274 137.340 C 316.176 137.243,315.973 137.819,315.822 138.622 M205.029 139.829 C 204.881 140.415,204.838 140.972,204.932 141.066 C 205.027 141.160,205.224 140.758,205.371 140.171 C 205.519 139.585,205.562 139.028,205.468 138.934 C 205.373 138.840,205.176 139.242,205.029 139.829 M204.229 143.829 C 204.081 144.415,204.038 144.972,204.132 145.066 C 204.227 145.160,204.424 144.758,204.571 144.171 C 204.719 143.585,204.762 143.028,204.668 142.934 C 204.573 142.840,204.376 143.242,204.229 143.829 M202.629 151.829 C 202.481 152.415,202.438 152.972,202.532 153.066 C 202.627 153.160,202.824 152.758,202.971 152.171 C 203.119 151.585,203.162 151.028,203.068 150.934 C 202.973 150.840,202.776 151.242,202.629 151.829 M201.800 156.000 C 201.648 156.691,201.607 157.341,201.709 157.442 C 201.811 157.544,202.009 157.053,202.150 156.350 C 202.483 154.683,202.160 154.360,201.800 156.000 M137.429 159.429 C 137.281 160.015,137.238 160.572,137.332 160.666 C 137.427 160.760,137.624 160.358,137.771 159.771 C 137.919 159.185,137.962 158.628,137.868 158.534 C 137.773 158.440,137.576 158.842,137.429 159.429 M201.000 160.000 C 200.848 160.691,200.807 161.341,200.909 161.442 C 201.011 161.544,201.209 161.053,201.350 160.350 C 201.683 158.683,201.360 158.360,201.000 160.000 M244.893 161.100 C 243.857 162.596,243.521 163.200,243.723 163.200 C 243.817 163.200,244.370 162.480,244.953 161.600 C 246.136 159.812,246.084 159.379,244.893 161.100 M136.629 163.429 C 136.481 164.015,136.438 164.572,136.532 164.666 C 136.627 164.760,136.824 164.358,136.971 163.771 C 137.119 163.185,137.162 162.628,137.068 162.534 C 136.973 162.440,136.776 162.842,136.629 163.429 M242.034 164.953 L 241.069 166.200 242.213 165.112 C 242.843 164.514,243.277 163.953,243.179 163.865 C 243.080 163.777,242.565 164.267,242.034 164.953 M239.775 167.700 L 238.600 169.000 239.900 167.825 C 240.615 167.179,241.200 166.594,241.200 166.525 C 241.200 166.216,240.870 166.488,239.775 167.700 M135.000 171.200 C 134.848 171.891,134.807 172.541,134.909 172.642 C 135.011 172.744,135.209 172.253,135.350 171.550 C 135.683 169.883,135.360 169.560,135.000 171.200 M235.185 171.629 L 233.800 172.858 235.300 171.781 C 236.626 170.830,237.057 170.400,236.685 170.400 C 236.622 170.400,235.947 170.953,235.185 171.629 M134.200 175.200 C 134.048 175.891,134.007 176.541,134.109 176.642 C 134.211 176.744,134.409 176.253,134.550 175.550 C 134.883 173.883,134.560 173.560,134.200 175.200 M302.600 176.800 C 302.259 177.460,302.069 178.000,302.179 178.000 C 302.289 178.000,302.659 177.460,303.000 176.800 C 303.341 176.140,303.531 175.600,303.421 175.600 C 303.311 175.600,302.941 176.140,302.600 176.800 M197.728 177.400 C 197.808 178.178,198.108 178.200,208.405 178.210 L 219.000 178.220 208.528 178.103 C 198.997 177.997,198.038 177.925,197.851 177.294 C 197.695 176.765,197.666 176.790,197.728 177.400 M222.200 177.600 C 221.696 177.817,221.622 177.944,222.000 177.944 C 222.330 177.944,222.960 177.789,223.400 177.600 C 223.904 177.383,223.978 177.256,223.600 177.256 C 223.270 177.256,222.640 177.411,222.200 177.600 M121.634 177.900 C 109.268 178.014,108.370 178.126,108.425 179.549 C 108.443 179.990,108.568 179.909,108.812 179.300 L 109.174 178.400 121.364 178.400 C 129.058 178.400,133.644 178.253,133.800 178.000 C 133.936 177.780,133.992 177.642,133.924 177.694 C 133.856 177.746,128.325 177.838,121.634 177.900 M292.575 192.268 C 291.959 193.076,291.659 193.611,291.909 193.456 C 292.421 193.140,294.153 190.800,293.875 190.800 C 293.776 190.800,293.191 191.461,292.575 192.268 M106.046 191.851 C 106.021 192.319,106.315 192.949,106.700 193.251 C 107.309 193.728,107.340 193.722,106.943 193.200 C 106.692 192.870,106.398 192.240,106.289 191.800 C 106.103 191.040,106.090 191.043,106.046 191.851 M108.984 194.889 C 109.653 195.488,110.359 195.983,110.554 195.989 C 110.749 195.995,110.389 195.608,109.754 195.128 C 107.981 193.789,107.638 193.683,108.984 194.889 M118.600 216.387 C 118.600 220.201,118.725 222.619,118.877 221.760 C 119.216 219.849,119.200 212.237,118.853 210.627 C 118.714 209.981,118.600 212.574,118.600 216.387 M117.800 226.800 C 117.648 227.491,117.607 228.141,117.709 228.242 C 117.811 228.344,118.009 227.853,118.150 227.150 C 118.483 225.483,118.160 225.160,117.800 226.800 M232.200 229.200 C 231.130 229.472,231.108 229.505,232.000 229.505 C 232.550 229.505,233.540 229.368,234.200 229.200 C 235.270 228.928,235.292 228.895,234.400 228.895 C 233.850 228.895,232.860 229.032,232.200 229.200 M207.000 230.000 L 188.200 230.212 206.600 230.271 C 216.720 230.303,225.900 230.190,227.000 230.018 C 228.809 229.737,228.847 229.711,227.400 229.748 C 226.520 229.770,217.340 229.883,207.000 230.000 M123.600 230.288 C 139.409 230.567,152.707 230.573,152.539 230.300 C 152.436 230.135,144.488 230.040,134.876 230.089 C 125.264 230.138,120.190 230.227,123.600 230.288 M277.874 233.899 C 281.655 233.965,287.955 233.965,291.874 233.899 C 295.793 233.834,292.700 233.780,285.000 233.780 C 277.300 233.780,274.093 233.834,277.874 233.899 M298.629 237.429 C 298.481 238.015,298.438 238.572,298.532 238.666 C 298.627 238.760,298.824 238.358,298.971 237.771 C 299.119 237.185,299.162 236.628,299.068 236.534 C 298.973 236.440,298.776 236.842,298.629 237.429 M269.473 238.153 C 269.323 238.545,269.211 239.166,269.225 239.533 C 269.242 239.975,269.381 239.874,269.637 239.234 C 269.849 238.703,269.961 238.082,269.885 237.854 C 269.809 237.627,269.624 237.761,269.473 238.153 M137.900 239.029 C 136.405 239.840,136.496 240.178,138.000 239.400 C 138.660 239.059,139.200 238.694,139.200 238.590 C 139.200 238.332,139.157 238.347,137.900 239.029 M185.450 241.650 C 185.117 243.317,185.440 243.640,185.800 242.000 C 185.952 241.309,185.993 240.659,185.891 240.558 C 185.789 240.456,185.591 240.947,185.450 241.650 M297.829 241.429 C 297.681 242.015,297.638 242.572,297.732 242.666 C 297.827 242.760,298.024 242.358,298.171 241.771 C 298.319 241.185,298.362 240.628,298.268 240.534 C 298.173 240.440,297.976 240.842,297.829 241.429 M184.629 245.429 C 184.481 246.015,184.438 246.572,184.532 246.666 C 184.627 246.760,184.824 246.358,184.971 245.771 C 185.119 245.185,185.162 244.628,185.068 244.534 C 184.973 244.440,184.776 244.842,184.629 245.429 M183.829 249.429 C 183.681 250.015,183.638 250.572,183.732 250.666 C 183.827 250.760,184.024 250.358,184.171 249.771 C 184.319 249.185,184.362 248.628,184.268 248.534 C 184.173 248.440,183.976 248.842,183.829 249.429 M296.229 249.429 C 296.081 250.015,296.038 250.572,296.132 250.666 C 296.227 250.760,296.424 250.358,296.571 249.771 C 296.719 249.185,296.762 248.628,296.668 248.534 C 296.573 248.440,296.376 248.842,296.229 249.429 M183.029 253.429 C 182.881 254.015,182.838 254.572,182.932 254.666 C 183.027 254.760,183.224 254.358,183.371 253.771 C 183.519 253.185,183.562 252.628,183.468 252.534 C 183.373 252.440,183.176 252.842,183.029 253.429 M295.400 253.600 C 295.248 254.291,295.207 254.941,295.309 255.042 C 295.411 255.144,295.609 254.653,295.750 253.950 C 295.891 253.247,295.931 252.598,295.841 252.508 C 295.750 252.417,295.552 252.909,295.400 253.600 M117.873 256.953 C 117.723 257.345,117.611 257.966,117.625 258.333 C 117.642 258.775,117.781 258.674,118.037 258.034 C 118.249 257.503,118.361 256.882,118.285 256.654 C 118.209 256.427,118.024 256.561,117.873 256.953 M182.200 257.600 C 182.048 258.291,182.007 258.941,182.109 259.042 C 182.211 259.144,182.409 258.653,182.550 257.950 C 182.883 256.283,182.560 255.960,182.200 257.600 M265.050 260.450 C 264.909 261.153,264.869 261.802,264.959 261.892 C 265.050 261.983,265.248 261.491,265.400 260.800 C 265.552 260.109,265.593 259.459,265.491 259.358 C 265.389 259.256,265.191 259.747,265.050 260.450 M117.073 260.953 C 116.923 261.345,116.811 261.966,116.825 262.333 C 116.842 262.775,116.981 262.674,117.237 262.034 C 117.449 261.503,117.561 260.882,117.485 260.654 C 117.409 260.427,117.224 260.561,117.073 260.953 M293.734 262.800 L 293.800 263.800 308.500 264.000 C 316.585 264.110,323.200 264.065,323.200 263.900 C 323.200 263.735,316.643 263.600,308.628 263.600 L 294.056 263.600 293.862 262.700 C 293.692 261.907,293.677 261.919,293.734 262.800 M249.400 263.600 L 234.600 263.815 249.476 263.907 C 259.064 263.967,264.441 263.858,264.600 263.600 C 264.736 263.380,264.702 263.242,264.524 263.293 C 264.346 263.344,257.540 263.482,249.400 263.600 M116.273 264.953 C 116.123 265.345,116.011 265.966,116.025 266.333 C 116.042 266.775,116.181 266.674,116.437 266.034 C 116.649 265.503,116.761 264.882,116.685 264.654 C 116.609 264.427,116.424 264.561,116.273 264.953 M322.629 266.229 C 322.481 266.815,322.438 267.372,322.532 267.466 C 322.627 267.560,322.824 267.158,322.971 266.571 C 323.119 265.985,323.162 265.428,323.068 265.334 C 322.973 265.240,322.776 265.642,322.629 266.229 M115.449 269.015 C 115.312 269.373,115.215 269.966,115.234 270.333 C 115.253 270.700,115.427 270.469,115.621 269.820 C 115.998 268.558,115.865 267.933,115.449 269.015 M321.850 270.050 C 321.709 270.753,321.669 271.402,321.759 271.492 C 321.850 271.583,322.048 271.091,322.200 270.400 C 322.352 269.709,322.393 269.059,322.291 268.958 C 322.189 268.856,321.991 269.347,321.850 270.050 M232.650 273.650 C 232.509 274.353,232.469 275.002,232.559 275.092 C 232.650 275.183,232.848 274.691,233.000 274.000 C 233.152 273.309,233.193 272.659,233.091 272.558 C 232.989 272.456,232.791 272.947,232.650 273.650 M178.622 275.822 C 178.472 276.625,178.428 277.362,178.526 277.460 C 178.624 277.557,178.827 276.981,178.978 276.178 C 179.128 275.375,179.172 274.638,179.074 274.540 C 178.976 274.443,178.773 275.019,178.622 275.822 M231.850 277.650 C 231.709 278.353,231.669 279.002,231.759 279.092 C 231.850 279.183,232.048 278.691,232.200 278.000 C 232.352 277.309,232.393 276.659,232.291 276.558 C 232.189 276.456,231.991 276.947,231.850 277.650 M231.029 281.829 C 230.881 282.415,230.838 282.972,230.932 283.066 C 231.027 283.160,231.224 282.758,231.371 282.171 C 231.519 281.585,231.562 281.028,231.468 280.934 C 231.373 280.840,231.176 281.242,231.029 281.829 M178.468 285.400 C 178.462 285.840,178.611 286.560,178.800 287.000 C 179.238 288.019,179.238 286.968,178.800 285.600 C 178.543 284.796,178.477 284.757,178.468 285.400 M230.229 285.829 C 230.081 286.415,230.038 286.972,230.132 287.066 C 230.227 287.160,230.424 286.758,230.571 286.171 C 230.719 285.585,230.762 285.028,230.668 284.934 C 230.573 284.840,230.376 285.242,230.229 285.829 M318.250 288.050 C 318.109 288.753,318.069 289.402,318.159 289.492 C 318.250 289.583,318.448 289.091,318.600 288.400 C 318.752 287.709,318.793 287.059,318.691 286.958 C 318.589 286.856,318.391 287.347,318.250 288.050 M229.429 289.829 C 229.281 290.415,229.238 290.972,229.332 291.066 C 229.427 291.160,229.624 290.758,229.771 290.171 C 229.919 289.585,229.962 289.028,229.868 288.934 C 229.773 288.840,229.576 289.242,229.429 289.829 M317.508 291.510 L 317.275 292.400 302.661 292.400 C 294.623 292.400,287.964 292.535,287.862 292.700 C 287.759 292.865,294.300 292.951,302.397 292.891 C 317.670 292.777,318.430 292.690,317.908 291.124 C 317.816 290.847,317.636 291.021,317.508 291.510 M229.462 292.500 C 229.564 292.665,236.137 292.800,244.069 292.800 L 258.491 292.800 258.266 294.700 C 258.110 296.011,258.146 296.290,258.380 295.600 C 258.567 295.050,258.738 294.109,258.760 293.510 L 258.800 292.419 244.038 292.310 C 235.919 292.249,229.359 292.335,229.462 292.500 M102.060 296.242 C 101.762 296.578,101.599 296.932,101.695 297.029 C 101.792 297.126,102.198 296.844,102.598 296.402 C 102.997 295.961,103.161 295.607,102.962 295.615 C 102.763 295.624,102.357 295.905,102.060 296.242 M257.429 298.629 C 257.281 299.215,257.238 299.772,257.332 299.866 C 257.427 299.960,257.624 299.558,257.771 298.971 C 257.919 298.385,257.962 297.828,257.868 297.734 C 257.773 297.640,257.576 298.042,257.429 298.629 M185.800 300.800 C 186.659 301.680,187.452 302.400,187.562 302.400 C 187.672 302.400,187.059 301.680,186.200 300.800 C 185.341 299.920,184.548 299.200,184.438 299.200 C 184.328 299.200,184.941 299.920,185.800 300.800 M256.629 302.629 C 256.481 303.215,256.438 303.772,256.532 303.866 C 256.627 303.960,256.824 303.558,256.971 302.971 C 257.119 302.385,257.162 301.828,257.068 301.734 C 256.973 301.640,256.776 302.042,256.629 302.629 M285.029 305.429 C 284.881 306.015,284.838 306.572,284.932 306.666 C 285.027 306.760,285.224 306.358,285.371 305.771 C 285.519 305.185,285.562 304.628,285.468 304.534 C 285.373 304.440,285.176 304.842,285.029 305.429 M255.829 306.629 C 255.681 307.215,255.638 307.772,255.732 307.866 C 255.827 307.960,256.024 307.558,256.171 306.971 C 256.319 306.385,256.362 305.828,256.268 305.734 C 256.173 305.640,255.976 306.042,255.829 306.629 M84.726 307.214 C 83.915 307.642,83.146 308.164,83.016 308.373 C 82.831 308.674,86.076 307.081,86.767 306.532 C 87.296 306.112,85.981 306.551,84.726 307.214 M196.854 308.800 C 196.819 309.350,196.696 310.250,196.583 310.800 L 196.377 311.800 196.807 310.815 C 197.043 310.274,197.165 309.374,197.078 308.815 L 196.920 307.800 196.854 308.800 M284.229 309.429 C 284.081 310.015,284.038 310.572,284.132 310.666 C 284.227 310.760,284.424 310.358,284.571 309.771 C 284.719 309.185,284.762 308.628,284.668 308.534 C 284.573 308.440,284.376 308.842,284.229 309.429 M82.229 310.629 C 82.081 311.215,82.038 311.772,82.132 311.866 C 82.227 311.960,82.424 311.558,82.571 310.971 C 82.719 310.385,82.762 309.828,82.668 309.734 C 82.573 309.640,82.376 310.042,82.229 310.629 M195.822 314.222 C 195.672 315.025,195.628 315.762,195.726 315.860 C 195.824 315.957,196.027 315.381,196.178 314.578 C 196.328 313.775,196.372 313.038,196.274 312.940 C 196.176 312.843,195.973 313.419,195.822 314.222 M282.629 317.429 C 282.481 318.015,282.438 318.572,282.532 318.666 C 282.627 318.760,282.824 318.358,282.971 317.771 C 283.119 317.185,283.162 316.628,283.068 316.534 C 282.973 316.440,282.776 316.842,282.629 317.429 M195.050 318.050 C 194.717 319.717,195.040 320.040,195.400 318.400 C 195.552 317.709,195.593 317.059,195.491 316.958 C 195.389 316.856,195.191 317.347,195.050 318.050 M282.046 320.620 C 282.021 321.071,281.821 321.657,281.601 321.921 C 281.382 322.186,281.490 322.153,281.840 321.849 C 282.190 321.544,282.390 320.958,282.285 320.547 C 282.112 319.874,282.088 319.881,282.046 320.620 " stroke="none" fill="#bcbcbc" fill-rule="evenodd"></path><path id="path6" d="" stroke="none" fill="#7c7c7c" fill-rule="evenodd"></path></g></svg>