<?xml version="1.0" encoding="UTF-8"?>
<svg height="128px" viewBox="0 0 128 128" width="128px" xmlns="http://www.w3.org/2000/svg" xmlns:xlink="http://www.w3.org/1999/xlink">
    <linearGradient id="a" gradientUnits="userSpaceOnUse" x1="28.000001" x2="100.000001" y1="67.999038" y2="67.999038">
        <stop offset="0" stop-color="#77767b"/>
        <stop offset="0.2" stop-color="#9c9c9f"/>
        <stop offset="1" stop-color="#77767b"/>
    </linearGradient>
    <linearGradient id="b" gradientUnits="userSpaceOnUse" x1="120.58471" x2="7.415224" y1="121.583679" y2="8.414199">
        <stop offset="0" stop-color="#c131e3"/>
        <stop offset="0.225645" stop-color="#7c4ce6"/>
        <stop offset="0.687903" stop-color="#9784ed"/>
        <stop offset="1" stop-color="#a840e4"/>
    </linearGradient>
    <linearGradient id="c" gradientUnits="userSpaceOnUse">
        <stop offset="0" stop-color="#8d7eef"/>
        <stop offset="0.308317" stop-color="#7461e9"/>
        <stop offset="1" stop-color="#381bb2"/>
    </linearGradient>
    <radialGradient id="d" cx="12.000007" cy="87.999085625" r="17.5" xlink:href="#c"/>
    <linearGradient id="e" gradientUnits="userSpaceOnUse">
        <stop offset="0" stop-color="#ea0808"/>
        <stop offset="0.308317" stop-color="#c90808"/>
        <stop offset="1" stop-color="#830707"/>
    </linearGradient>
    <radialGradient id="f" cx="78.000001" cy="59.999023" r="13" xlink:href="#e"/>
    <radialGradient id="g" cx="42.000001" cy="59.999023" r="13" xlink:href="#e"/>
    <radialGradient id="h" cx="60.000001" cy="77.999023" r="13" xlink:href="#e"/>
    <radialGradient id="i" cx="58.999997" cy="4.998993625" r="17.5" xlink:href="#c"/>
    <radialGradient id="j" cx="105.999986" cy="87.998993625" r="17.5" xlink:href="#c"/>
    <radialGradient id="k" cx="60.000001" cy="41.999023" r="13" xlink:href="#e"/>
    <clipPath id="l">
        <rect height="128" width="128"/>
    </clipPath>
    <clipPath id="m">
        <rect height="128" width="128"/>
    </clipPath>
    <filter id="n" height="100%" width="100%" x="0%" y="0%">
        <feColorMatrix in="SourceGraphic" type="matrix" values="0 0 0 0 1 0 0 0 0 1 0 0 0 0 1 0 0 0 1 0"/>
    </filter>
    <mask id="o">
        <g clip-path="url(#m)" filter="url(#n)">
            <g clip-path="url(#l)">
                <path d="m 64 10 c -31.457031 0 -57 25.542969 -57 57 s 25.542969 57 57 57 s 57 -25.542969 57 -57 s -25.542969 -57 -57 -57 z m 0 4 c 29.292969 0 53 23.703125 53 53 c 0 29.292969 -23.707031 53 -53 53 s -53 -23.707031 -53 -53 c 0 -29.296875 23.707031 -53 53 -53 z m 0 0" fill="#631cc1"/>
                <path d="m 64 31.996094 c -18.308594 0.035156 -33.679688 13.804687 -35.710938 32 h -0.289062 v 4 v 0.003906 c 0 19.882812 16.117188 36 36 36 s 36 -16.117188 36 -36 c 0 0 0 0 0 -0.003906 v -4 h -0.234375 c -2.035156 -18.214844 -17.433594 -31.992188 -35.765625 -32 z m 0 0" fill="url(#a)"/>
                <path d="m 100 64 c 0 19.882812 -16.117188 36 -36 36 s -36 -16.117188 -36 -36 s 16.117188 -36 36 -36 s 36 16.117188 36 36 z m 0 0" fill="#deddda"/>
                <path d="m 64 8 c -31.457031 0 -57 25.542969 -57 57 s 25.542969 57 57 57 s 57 -25.542969 57 -57 s -25.542969 -57 -57 -57 z m 0 4 c 29.292969 0 53 23.703125 53 53 c 0 29.292969 -23.707031 53 -53 53 s -53 -23.707031 -53 -53 c 0 -29.296875 23.707031 -53 53 -53 z m 0 0" fill="url(#b)"/>
                <path d="m 64 10.996094 c -29.292969 0 -53 23.707031 -53 53 c 0 0.167968 0.011719 0.335937 0.011719 0.5 c 0.269531 -29.0625 23.859375 -52.5 52.988281 -52.5 s 52.71875 23.4375 52.988281 52.5 c 0.003907 -0.164063 0.011719 -0.332032 0.011719 -0.5 c 0 -29.292969 -23.707031 -53 -53 -53 z m -56.988281 53.5 c 0 0.167968 -0.011719 0.335937 -0.011719 0.5 c 0 31.457031 25.542969 57 57 57 s 57 -25.542969 57 -57 c 0 -0.164063 -0.011719 -0.332032 -0.011719 -0.5 c -0.269531 31.226562 -25.699219 56.5 -56.988281 56.5 s -56.71875 -25.273438 -56.988281 -56.5 z m 0 0" fill="#ffffff" fill-opacity="0.137255"/>
                <path d="m 27 93 c 0 5.523438 -4.476562 10 -10 10 s -10 -4.476562 -10 -10 s 4.476562 -10 10 -10 s 10 4.476562 10 10 z m 0 0" fill="url(#d)"/>
                <path d="m 82 57.996094 c -3.640625 0.007812 -6.820312 2.476562 -7.730469 6 h -0.269531 v 2 c 0 4.421875 3.582031 8 8 8 s 8 -3.578125 8 -8 v -2 h -0.253906 c -0.914063 -3.53125 -4.097656 -5.996094 -7.746094 -6 z m 0 0" fill="#540f17"/>
                <path d="m 90 64 c 0 4.417969 -3.582031 8 -8 8 s -8 -3.582031 -8 -8 s 3.582031 -8 8 -8 s 8 3.582031 8 8 z m 0 0" fill="url(#f)"/>
                <path d="m 46 57.996094 c -3.640625 0.007812 -6.820312 2.476562 -7.730469 6 h -0.269531 v 2 c 0 4.421875 3.582031 8 8 8 s 8 -3.578125 8 -8 v -2 h -0.253906 c -0.914063 -3.53125 -4.097656 -5.996094 -7.746094 -6 z m 0 0" fill="#540f17"/>
                <path d="m 54 64 c 0 4.417969 -3.582031 8 -8 8 s -8 -3.582031 -8 -8 s 3.582031 -8 8 -8 s 8 3.582031 8 8 z m 0 0" fill="url(#g)"/>
                <path d="m 64 75.996094 c -3.640625 0.007812 -6.820312 2.476562 -7.730469 6 h -0.269531 v 2.003906 c 0 4.417969 3.582031 8 8 8 s 8 -3.582031 8 -8 c 0 0 0 0 0 -0.003906 v -2 h -0.253906 c -0.914063 -3.53125 -4.097656 -5.996094 -7.746094 -6 z m 0 0" fill="#540f17"/>
                <path d="m 72 82 c 0 4.417969 -3.582031 8 -8 8 s -8 -3.582031 -8 -8 s 3.582031 -8 8 -8 s 8 3.582031 8 8 z m 0 0" fill="url(#h)"/>
                <path d="m 74 10 c 0 5.523438 -4.476562 10 -10 10 s -10 -4.476562 -10 -10 s 4.476562 -10 10 -10 s 10 4.476562 10 10 z m 0 0" fill="url(#i)"/>
                <path d="m 121 93 c 0 5.523438 -4.476562 10 -10 10 s -10 -4.476562 -10 -10 s 4.476562 -10 10 -10 s 10 4.476562 10 10 z m 0 0" fill="url(#j)"/>
                <path d="m 64 39.996094 c -3.640625 0.007812 -6.820312 2.476562 -7.730469 6 h -0.269531 v 2 c 0 4.421875 3.582031 8 8 8 s 8 -3.578125 8 -8 v -2 h -0.253906 c -0.914063 -3.53125 -4.097656 -5.996094 -7.746094 -6 z m 0 0" fill="#540f17"/>
                <path d="m 72 46 c 0 4.417969 -3.582031 8 -8 8 s -8 -3.582031 -8 -8 s 3.582031 -8 8 -8 s 8 3.582031 8 8 z m 0 0" fill="url(#k)"/>
            </g>
        </g>
    </mask>
    <mask id="p">
        <g filter="url(#n)">
            <rect fill-opacity="0.8" height="128" width="128"/>
        </g>
    </mask>
    <linearGradient id="q" gradientTransform="matrix(0 0.37 -0.98462 0 295.38501 -30.360001)" gradientUnits="userSpaceOnUse" x1="300" x2="428" y1="235" y2="235">
        <stop offset="0" stop-color="#f9f06b"/>
        <stop offset="1" stop-color="#f5c211"/>
    </linearGradient>
    <clipPath id="r">
        <rect height="128" width="128"/>
    </clipPath>
    <clipPath id="s">
        <rect height="128" width="128"/>
    </clipPath>
    <path d="m 64 10 c -31.457031 0 -57 25.542969 -57 57 s 25.542969 57 57 57 s 57 -25.542969 57 -57 s -25.542969 -57 -57 -57 z m 0 4 c 29.292969 0 53 23.703125 53 53 c 0 29.292969 -23.707031 53 -53 53 s -53 -23.707031 -53 -53 c 0 -29.296875 23.707031 -53 53 -53 z m 0 0" fill="#631cc1"/>
    <path d="m 64 31.996094 c -18.308594 0.035156 -33.679688 13.804687 -35.710938 32 h -0.289062 v 4 v 0.003906 c 0 19.882812 16.117188 36 36 36 s 36 -16.117188 36 -36 c 0 0 0 0 0 -0.003906 v -4 h -0.234375 c -2.035156 -18.214844 -17.433594 -31.992188 -35.765625 -32 z m 0 0" fill="url(#a)"/>
    <path d="m 100 64 c 0 19.882812 -16.117188 36 -36 36 s -36 -16.117188 -36 -36 s 16.117188 -36 36 -36 s 36 16.117188 36 36 z m 0 0" fill="#deddda"/>
    <path d="m 64 8 c -31.457031 0 -57 25.542969 -57 57 s 25.542969 57 57 57 s 57 -25.542969 57 -57 s -25.542969 -57 -57 -57 z m 0 4 c 29.292969 0 53 23.703125 53 53 c 0 29.292969 -23.707031 53 -53 53 s -53 -23.707031 -53 -53 c 0 -29.296875 23.707031 -53 53 -53 z m 0 0" fill="url(#b)"/>
    <path d="m 64 10.996094 c -29.292969 0 -53 23.707031 -53 53 c 0 0.167968 0.011719 0.335937 0.011719 0.5 c 0.269531 -29.0625 23.859375 -52.5 52.988281 -52.5 s 52.71875 23.4375 52.988281 52.5 c 0.003907 -0.164063 0.011719 -0.332032 0.011719 -0.5 c 0 -29.292969 -23.707031 -53 -53 -53 z m -56.988281 53.5 c 0 0.167968 -0.011719 0.335937 -0.011719 0.5 c 0 31.457031 25.542969 57 57 57 s 57 -25.542969 57 -57 c 0 -0.164063 -0.011719 -0.332032 -0.011719 -0.5 c -0.269531 31.226562 -25.699219 56.5 -56.988281 56.5 s -56.71875 -25.273438 -56.988281 -56.5 z m 0 0" fill="#ffffff" fill-opacity="0.137255"/>
    <path d="m 27 93 c 0 5.523438 -4.476562 10 -10 10 s -10 -4.476562 -10 -10 s 4.476562 -10 10 -10 s 10 4.476562 10 10 z m 0 0" fill="url(#d)"/>
    <path d="m 82 57.996094 c -3.640625 0.007812 -6.820312 2.476562 -7.730469 6 h -0.269531 v 2 c 0 4.421875 3.582031 8 8 8 s 8 -3.578125 8 -8 v -2 h -0.253906 c -0.914063 -3.53125 -4.097656 -5.996094 -7.746094 -6 z m 0 0" fill="#540f17"/>
    <path d="m 90 64 c 0 4.417969 -3.582031 8 -8 8 s -8 -3.582031 -8 -8 s 3.582031 -8 8 -8 s 8 3.582031 8 8 z m 0 0" fill="url(#f)"/>
    <path d="m 46 57.996094 c -3.640625 0.007812 -6.820312 2.476562 -7.730469 6 h -0.269531 v 2 c 0 4.421875 3.582031 8 8 8 s 8 -3.578125 8 -8 v -2 h -0.253906 c -0.914063 -3.53125 -4.097656 -5.996094 -7.746094 -6 z m 0 0" fill="#540f17"/>
    <path d="m 54 64 c 0 4.417969 -3.582031 8 -8 8 s -8 -3.582031 -8 -8 s 3.582031 -8 8 -8 s 8 3.582031 8 8 z m 0 0" fill="url(#g)"/>
    <path d="m 64 75.996094 c -3.640625 0.007812 -6.820312 2.476562 -7.730469 6 h -0.269531 v 2.003906 c 0 4.417969 3.582031 8 8 8 s 8 -3.582031 8 -8 c 0 0 0 0 0 -0.003906 v -2 h -0.253906 c -0.914063 -3.53125 -4.097656 -5.996094 -7.746094 -6 z m 0 0" fill="#540f17"/>
    <path d="m 72 82 c 0 4.417969 -3.582031 8 -8 8 s -8 -3.582031 -8 -8 s 3.582031 -8 8 -8 s 8 3.582031 8 8 z m 0 0" fill="url(#h)"/>
    <path d="m 74 10 c 0 5.523438 -4.476562 10 -10 10 s -10 -4.476562 -10 -10 s 4.476562 -10 10 -10 s 10 4.476562 10 10 z m 0 0" fill="url(#i)"/>
    <path d="m 121 93 c 0 5.523438 -4.476562 10 -10 10 s -10 -4.476562 -10 -10 s 4.476562 -10 10 -10 s 10 4.476562 10 10 z m 0 0" fill="url(#j)"/>
    <path d="m 64 39.996094 c -3.640625 0.007812 -6.820312 2.476562 -7.730469 6 h -0.269531 v 2 c 0 4.421875 3.582031 8 8 8 s 8 -3.578125 8 -8 v -2 h -0.253906 c -0.914063 -3.53125 -4.097656 -5.996094 -7.746094 -6 z m 0 0" fill="#540f17"/>
    <path d="m 72 46 c 0 4.417969 -3.582031 8 -8 8 s -8 -3.582031 -8 -8 s 3.582031 -8 8 -8 s 8 3.582031 8 8 z m 0 0" fill="url(#k)"/>
    <g clip-path="url(#s)" mask="url(#o)">
        <g clip-path="url(#r)" mask="url(#p)">
            <path d="m 128 80.640625 v 47.359375 h -128 v -47.359375 z m 0 0" fill="url(#q)"/>
            <path d="m 13.308594 80.640625 l 47.355468 47.359375 h 21.214844 l -47.359375 -47.359375 z m 42.421875 0 l 47.363281 47.359375 h 21.214844 l -47.363282 -47.359375 z m 42.429687 0 l 29.839844 29.839844 v -21.210938 l -8.628906 -8.628906 z m -98.160156 7.90625 v 21.214844 l 18.238281 18.238281 h 21.214844 z m 0 0"/>
        </g>
    </g>
</svg>
