<?xml version="1.0" encoding="UTF-8" standalone="no"?>
<!-- Created with Inkscape (http://www.inkscape.org/) -->

<svg
   inkscape:export-ydpi="96"
   inkscape:export-xdpi="96"
   inkscape:export-filename="Template.png"
   width="128"
   height="128"
   id="svg11300"
   sodipodi:version="0.32"
   inkscape:version="1.3.2 (091e20ef0f, 2023-11-25)"
   sodipodi:docname="com.vysp3r.ProtonPlus.svg"
   inkscape:output_extension="org.inkscape.output.svg.inkscape"
   version="1.0"
   style="display:inline;enable-background:new"
   viewBox="0 0 128 128"
   xml:space="preserve"
   xmlns:inkscape="http://www.inkscape.org/namespaces/inkscape"
   xmlns:sodipodi="http://sodipodi.sourceforge.net/DTD/sodipodi-0.dtd"
   xmlns:xlink="http://www.w3.org/1999/xlink"
   xmlns="http://www.w3.org/2000/svg"
   xmlns:svg="http://www.w3.org/2000/svg"
   xmlns:rdf="http://www.w3.org/1999/02/22-rdf-syntax-ns#"
   xmlns:cc="http://creativecommons.org/ns#"
   xmlns:dc="http://purl.org/dc/elements/1.1/"><title
     id="title4162">Adwaita Icon Template</title><defs
     id="defs3"><linearGradient
       id="linearGradient36"
       inkscape:collect="always"><stop
         style="stop-color:#130c4a;stop-opacity:1;"
         offset="0"
         id="stop35" /><stop
         style="stop-color:#c11c90;stop-opacity:1;"
         offset="1"
         id="stop36" /></linearGradient><rect
       x="72.836483"
       y="75.825632"
       width="47.615052"
       height="33.058913"
       id="rect33" /><linearGradient
       id="linearGradient32"
       inkscape:collect="always"><stop
         style="stop-color:#f4f4f4;stop-opacity:1;"
         offset="0"
         id="stop32" /><stop
         style="stop-color:#c9c9c9;stop-opacity:1;"
         offset="1"
         id="stop33" /></linearGradient><linearGradient
       y2="236"
       x2="96"
       y1="236"
       x1="32"
       gradientTransform="translate(604.81684,170.58641)"
       gradientUnits="userSpaceOnUse"
       id="linearGradient1099"
       xlink:href="#linearGradient1036" /><linearGradient
       id="linearGradient1036"><stop
         id="stop1032"
         offset="0"
         style="stop-color:#d5d3cf;stop-opacity:1;" /><stop
         id="stop1034"
         offset="1"
         style="stop-color:#f6f5f4;stop-opacity:1" /></linearGradient><radialGradient
       r="32"
       fy="-76"
       fx="-244"
       cy="-76"
       cx="-244"
       gradientTransform="matrix(0.88333331,0,0,0.88333331,-460.35018,463.11973)"
       gradientUnits="userSpaceOnUse"
       id="radialGradient1103"
       xlink:href="#linearGradient1069" /><linearGradient
       id="linearGradient1069"><stop
         id="stop1065"
         offset="0"
         style="stop-color:#d5d3cf;stop-opacity:1" /><stop
         id="stop1067-1"
         offset="1"
         style="stop-color:#949390;stop-opacity:1" /></linearGradient><linearGradient
       gradientUnits="userSpaceOnUse"
       y2="232"
       x2="64"
       y1="262.5"
       x1="64"
       id="linearGradient1027"
       xlink:href="#linearGradient1025"
       gradientTransform="translate(-470.5864,432.81685)" /><linearGradient
       id="linearGradient1025"><stop
         id="stop1021"
         offset="0"
         style="stop-color:#9a9996;stop-opacity:1" /><stop
         id="stop1023"
         offset="1"
         style="stop-color:#77767b;stop-opacity:1" /></linearGradient><inkscape:path-effect
       effect="spiro"
       id="path-effect35304-9"
       is_visible="true" /><clipPath
       clipPathUnits="userSpaceOnUse"
       id="clipPath1609-7"><path
         sodipodi:nodetypes="cccccc"
         inkscape:connector-curvature="0"
         id="path1611-5"
         d="m 252,116 28,-28 v -8 h -36 v 36 z"
         style="fill:#e74747;stroke:none;stroke-width:0.25px;stroke-linecap:butt;stroke-linejoin:miter;stroke-opacity:1" /></clipPath><linearGradient
       inkscape:collect="always"
       xlink:href="#linearGradient36"
       id="linearGradient5"
       x1="130.47371"
       y1="55.770756"
       x2="232.18472"
       y2="320.4848"
       gradientUnits="userSpaceOnUse" /><linearGradient
       id="linearGradient4"
       inkscape:collect="always"><stop
         style="stop-color:#130c4a;stop-opacity:1;"
         offset="0"
         id="stop4" /><stop
         style="stop-color:#7d135b;stop-opacity:1;"
         offset="1"
         id="stop5" /></linearGradient><inkscape:path-effect
       effect="simplify"
       id="path-effect3"
       is_visible="true"
       lpeversion="1.3"
       threshold="1"
       steps="1"
       smooth_angles="0"
       helper_size="10.278552"
       simplify_individual_paths="false"
       simplify_just_coalesce="false" /><filter
       style="color-interpolation-filters:sRGB;"
       inkscape:label="Drop Shadow"
       id="filter29"
       x="-0.049652755"
       y="-0.044992593"
       width="1.1158564"
       height="1.1049827"><feFlood
         result="flood"
         in="SourceGraphic"
         flood-opacity="0.262745"
         flood-color="rgb(0,0,0)"
         id="feFlood28" /><feGaussianBlur
         result="blur"
         in="SourceGraphic"
         stdDeviation="5.000000"
         id="feGaussianBlur28" /><feOffset
         result="offset"
         in="blur"
         dx="4.000000"
         dy="4.000000"
         id="feOffset28" /><feComposite
         result="comp1"
         operator="out"
         in="flood"
         in2="offset"
         id="feComposite28" /><feComposite
         result="comp2"
         operator="atop"
         in="comp1"
         in2="SourceGraphic"
         id="feComposite29" /></filter><linearGradient
       inkscape:collect="always"
       xlink:href="#linearGradient32"
       id="linearGradient33"
       x1="12.514024"
       y1="184.08633"
       x2="115.22912"
       y2="288.1705"
       gradientUnits="userSpaceOnUse"
       gradientTransform="matrix(1.2426035,0,0,1.2426035,-15.526652,-57.254415)" /><linearGradient
       inkscape:collect="always"
       xlink:href="#linearGradient4"
       id="linearGradient5-5"
       x1="130.47371"
       y1="55.770756"
       x2="232.18472"
       y2="320.4848"
       gradientUnits="userSpaceOnUse" /><filter
       style="color-interpolation-filters:sRGB"
       inkscape:label="Drop Shadow"
       id="filter29-1"
       x="-0.049597155"
       y="-0.044957743"
       width="1.1157267"
       height="1.1049014"><feFlood
         result="flood"
         in="SourceGraphic"
         flood-opacity="0.262745"
         flood-color="rgb(0,0,0)"
         id="feFlood28-5" /><feGaussianBlur
         result="blur"
         in="SourceGraphic"
         stdDeviation="5.000000"
         id="feGaussianBlur28-9" /><feOffset
         result="offset"
         in="blur"
         dx="4.000000"
         dy="4.000000"
         id="feOffset28-8" /><feComposite
         result="comp1"
         operator="out"
         in="flood"
         in2="offset"
         id="feComposite28-4" /><feComposite
         result="comp2"
         operator="atop"
         in="comp1"
         in2="SourceGraphic"
         id="feComposite29-8" /></filter></defs><sodipodi:namedview
     stroke="#ef2929"
     fill="#f57900"
     id="base"
     pagecolor="#ffffff"
     bordercolor="#666666"
     borderopacity="0.25490196"
     inkscape:pageopacity="0.0"
     inkscape:pageshadow="2"
     inkscape:zoom="4.0000003"
     inkscape:cx="45.624997"
     inkscape:cy="58.874996"
     inkscape:current-layer="layer9"
     showgrid="false"
     inkscape:grid-bbox="true"
     inkscape:document-units="px"
     inkscape:showpageshadow="false"
     inkscape:window-width="1920"
     inkscape:window-height="1011"
     inkscape:window-x="0"
     inkscape:window-y="0"
     width="400px"
     height="300px"
     inkscape:snap-nodes="true"
     inkscape:snap-bbox="true"
     objecttolerance="7"
     gridtolerance="12"
     guidetolerance="13"
     inkscape:window-maximized="1"
     inkscape:pagecheckerboard="false"
     showguides="false"
     inkscape:guide-bbox="true"
     inkscape:locked="false"
     inkscape:measure-start="0,0"
     inkscape:measure-end="0,0"
     inkscape:object-nodes="true"
     inkscape:bbox-nodes="true"
     inkscape:snap-global="true"
     inkscape:object-paths="true"
     inkscape:snap-intersection-paths="true"
     inkscape:snap-bbox-edge-midpoints="true"
     inkscape:snap-bbox-midpoints="true"
     showborder="false"
     inkscape:snap-center="true"
     inkscape:snap-object-midpoints="true"
     inkscape:snap-midpoints="true"
     inkscape:snap-smooth-nodes="true"
     inkscape:snap-text-baseline="true"
     inkscape:deskcolor="#d1d1d1"><inkscape:grid
       type="xygrid"
       id="grid5883"
       spacingx="2"
       spacingy="2"
       enabled="true"
       visible="false"
       empspacing="4"
       originx="0"
       originy="0"
       units="px" /><sodipodi:guide
       position="64,8"
       orientation="0,1"
       id="guide1073"
       inkscape:locked="false"
       inkscape:label=""
       inkscape:color="rgb(0,0,255)" /><sodipodi:guide
       position="12,64"
       orientation="1,0"
       id="guide1075"
       inkscape:locked="false"
       inkscape:label=""
       inkscape:color="rgb(0,0,255)" /><sodipodi:guide
       position="64,104"
       orientation="0,1"
       id="guide1099"
       inkscape:locked="false"
       inkscape:label=""
       inkscape:color="rgb(0,0,255)" /><sodipodi:guide
       position="64,128"
       orientation="0,1"
       id="guide993"
       inkscape:locked="false"
       inkscape:label=""
       inkscape:color="rgb(0,0,255)" /><sodipodi:guide
       position="104,64"
       orientation="1,0"
       id="guide995"
       inkscape:locked="false"
       inkscape:label=""
       inkscape:color="rgb(0,0,255)" /><sodipodi:guide
       position="9.2651362e-08,64"
       orientation="1,0"
       id="guide867"
       inkscape:locked="false"
       inkscape:label=""
       inkscape:color="rgb(0,0,255)" /><sodipodi:guide
       position="120,64"
       orientation="1,0"
       id="guide869"
       inkscape:locked="false"
       inkscape:label=""
       inkscape:color="rgb(0,0,255)" /><sodipodi:guide
       position="64,116"
       orientation="0,1"
       id="guide871"
       inkscape:locked="false"
       inkscape:label=""
       inkscape:color="rgb(0,0,255)" /><inkscape:grid
       type="xygrid"
       id="grid873"
       spacingx="1"
       spacingy="1"
       empspacing="8"
       color="#000000"
       opacity="0.49019608"
       empcolor="#000000"
       empopacity="0.08627451"
       dotted="true"
       originx="0"
       originy="0"
       units="px"
       visible="false" /><sodipodi:guide
       position="24,64"
       orientation="1,0"
       id="guide877"
       inkscape:locked="false"
       inkscape:label=""
       inkscape:color="rgb(0,0,255)" /><sodipodi:guide
       position="116,64"
       orientation="1,0"
       id="guide879"
       inkscape:locked="false"
       inkscape:label=""
       inkscape:color="rgb(0,0,255)" /><sodipodi:guide
       position="64,120"
       orientation="0,1"
       id="guide881"
       inkscape:locked="false"
       inkscape:label=""
       inkscape:color="rgb(0,0,255)" /><sodipodi:guide
       position="64,12"
       orientation="0,1"
       id="guide883"
       inkscape:locked="false"
       inkscape:label=""
       inkscape:color="rgb(0,0,255)" /><sodipodi:guide
       position="8,64"
       orientation="1,0"
       id="guide885"
       inkscape:locked="false"
       inkscape:label=""
       inkscape:color="rgb(0,0,255)" /><sodipodi:guide
       position="128,64"
       orientation="1,0"
       id="guide887"
       inkscape:locked="false"
       inkscape:label=""
       inkscape:color="rgb(0,0,255)" /><sodipodi:guide
       position="64,0"
       orientation="0,1"
       id="guide897"
       inkscape:locked="false"
       inkscape:label=""
       inkscape:color="rgb(0,0,255)" /><sodipodi:guide
       position="64,24"
       orientation="0,1"
       id="guide899"
       inkscape:locked="false"
       inkscape:label=""
       inkscape:color="rgb(0,0,255)" /><sodipodi:guide
       position="256,256"
       orientation="-0.70710678,0.70710678"
       id="guide950"
       inkscape:locked="false"
       inkscape:label=""
       inkscape:color="rgb(0,0,255)" /><sodipodi:guide
       position="64,64"
       orientation="0.70710678,0.70710678"
       id="guide952"
       inkscape:locked="false"
       inkscape:label=""
       inkscape:color="rgb(0,0,255)" /></sodipodi:namedview><metadata
     id="metadata4"><rdf:RDF><cc:Work
         rdf:about=""><dc:format>image/svg+xml</dc:format><dc:type
           rdf:resource="http://purl.org/dc/dcmitype/StillImage" /><dc:creator><cc:Agent><dc:title>GNOME Design Team</dc:title></cc:Agent></dc:creator><dc:source /><dc:title>Adwaita Icon Template</dc:title><dc:subject><rdf:Bag /></dc:subject><dc:date /><dc:rights><cc:Agent><dc:title /></cc:Agent></dc:rights><dc:publisher><cc:Agent><dc:title /></cc:Agent></dc:publisher><dc:identifier /><dc:relation /><dc:language /><dc:coverage /><dc:description /><dc:contributor><cc:Agent><dc:title /></cc:Agent></dc:contributor><cc:license
           rdf:resource="http://creativecommons.org/licenses/by-sa/4.0/" /></cc:Work><cc:License
         rdf:about="http://creativecommons.org/licenses/by-sa/4.0/"><cc:permits
           rdf:resource="http://creativecommons.org/ns#Reproduction" /><cc:permits
           rdf:resource="http://creativecommons.org/ns#Distribution" /><cc:requires
           rdf:resource="http://creativecommons.org/ns#Notice" /><cc:requires
           rdf:resource="http://creativecommons.org/ns#Attribution" /><cc:permits
           rdf:resource="http://creativecommons.org/ns#DerivativeWorks" /><cc:requires
           rdf:resource="http://creativecommons.org/ns#ShareAlike" /></cc:License></rdf:RDF></metadata><g
     inkscape:groupmode="layer"
     id="layer9"
     inkscape:label="App Icon"
     style="display:inline;enable-background:new"
     transform="translate(0,-172)"
     inkscape:highlight-color="#22f321"><rect
       ry="23"
       rx="23"
       y="172.00002"
       x="1.0610573e-05"
       height="127.99999"
       width="127.99999"
       id="rect1"
       style="display:inline;opacity:1;mix-blend-mode:normal;vector-effect:none;fill:url(#linearGradient33);fill-opacity:1;stroke:#000000;stroke-width:1.23018;stroke-linecap:butt;stroke-linejoin:miter;stroke-miterlimit:4;stroke-dasharray:1.23018, 1.23018;stroke-dashoffset:0;stroke-opacity:0;marker:none;marker-start:none;marker-mid:none;marker-end:none;paint-order:normal;enable-background:new"
       inkscape:label="rect1" /><path
       id="path0"
       d="m 133.825,56.491 c -0.80261,4.001318 -1.57539,8.017578 -2.22391,12.046645 -0.42186,2.54286 2.76418,2.91603 4.25024,4.145667 1.72294,1.045653 3.55635,1.973255 4.92305,3.511157 3.48554,3.634489 6.54278,7.881495 8.09159,12.715882 1.6713,6.909272 0.77053,14.118389 -0.75719,20.965119 -1.77627,8.72316 -3.4275,17.47114 -5.24867,26.1853 -1.82432,9.2538 -3.79296,18.48637 -5.38299,27.78085 -1.07888,1.58959 -0.25093,3.66678 -1.27404,5.26468 -0.70682,3.23988 -1.14634,6.54793 -1.94808,9.7737 -8.2757,0.2819 -16.55797,0.35308 -24.837,0.52 -0.98501,3.54681 -1.49927,7.20525 -2.38503,10.77716 -0.88223,2.31427 1.57601,3.36007 3.00884,4.53429 6.11166,4.87584 9.25104,12.67301 9.6031,20.35078 0.28583,4.64493 -0.32045,9.30341 -1.29983,13.83119 1.82623,0.65883 3.91115,0.35258 5.84709,0.49993 9.69066,0.20033 19.39574,-0.0372 29.07602,0.50328 0.0631,0.94664 -2.74549,2.11675 -3.83661,3.04555 -4.68784,2.96186 -9.3615,5.97573 -14.28499,8.53397 -1.24388,0.97914 -2.88662,1.76204 -4.36403,2.79358 -3.14882,1.55977 -5.97809,3.70037 -9.12377,5.27857 -2.16214,1.45227 -2.16797,4.35246 -2.79025,6.63964 -1.36319,7.01982 -2.87907,14.0161 -4.19292,21.04093 -0.93559,1.70234 -0.99586,3.78278 -2.16329,5.46112 -1.3344,2.70112 -2.58103,5.48473 -4.44816,7.86123 -0.54544,2.19614 -2.58868,3.59101 -4.11048,5.1242 -5.528985,4.84571 -11.695452,8.96946 -18.345628,12.11316 -2.36584,0.53978 -2.299041,2.72193 -3.004982,4.51772 -0.617749,2.86063 -1.068795,5.76681 -1.611533,8.64748 0.09589,0.61921 -0.797738,2.1005 0.314654,1.84622 37.504559,0 75.009239,0 112.513799,0 0.69138,-4.40947 1.65565,-8.77343 2.3041,-13.18763 0.36716,-2.38773 -3.14799,-2.27418 -4.4361,-3.79385 -3.1587,-1.92399 -6.14087,-4.22794 -8.25687,-7.30535 -2.2552,-3.1679 -4.43611,-6.67139 -4.75276,-10.6358 -0.93047,-1.71281 -0.45947,-3.80492 -0.574,-5.69112 0.0554,-4.15676 0.26992,-8.33375 1.279,-12.38281 1.26698,-6.82351 2.72522,-13.61526 3.9395,-20.44507 1.0294,-1.76976 0.37133,-3.9583 1.40858,-5.71313 -0.22641,-2.07786 0.98206,-3.80299 1.1185,-5.82578 0.4246,-2.6921 0.94644,-5.3691 1.58205,-8.01946 13.75585,-0.20092 27.51857,-0.15404 41.26642,-0.7095 3.76248,-0.22029 7.44386,-1.13844 11.15949,-1.7269 2.39526,-0.46594 4.69744,-1.30741 7.02531,-2.02401 1.84492,-0.59469 3.70802,-1.07799 5.47721,-1.94092 6.20799,-2.74992 12.18897,-6.07904 17.6965,-10.05617 3.81996,-2.79277 7.53892,-5.73111 10.91008,-9.063 7.22778,-6.88902 13.78191,-14.58478 18.67222,-23.32333 4.00454,-6.90439 7.57988,-14.0727 10.31895,-21.57785 0.75092,-1.95172 1.37128,-3.80281 1.85951,-5.79068 1.07327,-1.5976 0.89753,-3.72675 1.55534,-5.5182 3.19894,-12.4958 4.06468,-25.59392 2.64619,-38.41016 -0.47331,-4.7013 -1.75145,-9.26076 -2.95372,-13.808905 -1.00565,-1.473619 -1.11283,-3.42307 -2.06191,-4.99875 -1.76658,-3.94232 -3.8588,-7.757366 -6.30059,-11.319625 -2.72579,-3.542663 -5.48012,-7.115223 -8.94898,-9.979142 -9.63098,-8.283262 -22.36467,-12.182704 -34.887,-12.902603 -22.48082,-0.490414 -44.97014,-0.427597 -67.45512,-0.521842 -19.39522,0.02279 -38.79434,-0.12484 -58.18682,0.25341 -0.46691,0.02772 -0.93993,0.01181 -1.40008,0.109177 z m 105.742,51.836 c 6.61322,2.27855 11.38246,8.26941 13.25447,14.87394 2.40955,8.03363 1.42669,16.65079 -0.87136,24.58822 -0.64105,1.90395 -1.43316,3.65031 -2.16063,5.56223 -2.72827,5.77305 -5.93074,11.46597 -10.70947,15.80839 -5.40563,5.09026 -12.26954,9.10524 -19.82009,9.57666 -5.42045,0.4846 -10.90374,0.89116 -16.33379,0.34595 -1.97704,-0.42748 -4.09115,-1.79889 -4.44911,-3.94923 -0.69861,-3.41733 0.56162,-6.77314 0.85232,-10.16152 0.26024,-2.58507 1.52376,-4.90745 1.82867,-7.48125 1.18297,-5.92529 2.25255,-11.87685 3.41063,-17.80396 1.02876,-2.84141 1.19164,-5.90148 1.90801,-8.82745 1.41449,-7.02004 2.83769,-14.0452 4.04622,-21.1006 0.21088,-2.5019 2.54912,-2.49842 4.59619,-2.51025 7.39331,-0.25541 14.82027,-0.14559 22.1811,0.63031 0.76221,0.10729 1.53327,0.20532 2.26684,0.44856 z m 31.315,127.396 c -0.35145,2.07307 -0.92113,4.00031 -1.282,6.021 -0.0113,1.96901 -1.19489,3.67307 -1.18759,5.67958 -0.93314,4.97724 -1.82242,9.96765 -2.87382,14.91973 -0.40898,0.68914 -0.26262,2.36513 -1.42683,2.05669 -8.57444,0.0403 -17.15169,-0.0988 -25.72383,0.10178 -2.06529,-0.23594 -4.14118,0.77041 -3.81746,3.13026 -1.32716,7.29758 -2.94884,14.54108 -4.15598,21.86216 -0.51527,1.3998 -0.89958,2.72309 1.14047,2.35687 9.2448,0.26311 18.49619,0.10628 27.74404,0.14893 -0.41114,4.98899 -1.81373,9.81842 -2.54519,14.7581 -1.04889,1.62864 -0.38409,3.68136 -1.2692,5.3357 -0.69891,2.5065 -0.87909,5.13873 -1.44218,7.68266 -0.31884,2.04818 3.37177,0.93207 4.70101,1.44715 7.20446,0.35156 14.43474,0.65946 21.64256,0.27261 1.99761,-0.49274 1.34978,-3.52094 2.00671,-5.15996 1.02415,-5.00987 2.03038,-10.02734 2.97593,-15.04983 1.15168,-2.806 0.92751,-5.95691 1.97036,-8.78843 2.08415,-0.60126 4.3455,-0.33764 6.50661,-0.45964 7.45361,-0.14927 14.92229,0.16605 22.36598,-0.29697 1.9618,-0.52627 1.29073,-3.51278 1.87968,-5.15035 0.1987,-0.67959 0.30556,-3.44641 0.67824,-2.98685 0.53135,-0.32792 0.58507,-3.34469 0.97022,-4.58012 0.84139,-4.69088 1.73732,-9.37128 2.60468,-14.05634 0.41856,-0.98879 -0.99373,-0.41844 -1.56097,-0.56773 -8.31771,-0.0357 -16.63782,0.0913 -24.95352,-0.0998 -2.27017,0.42118 -3.4126,-1.06037 -2.2938,-3.07638 1.18273,-6.87772 2.60268,-13.70961 4.00803,-20.54431 -0.1097,-1.84481 2.03117,-4.64563 0.0621,-5.7989 -3.81478,-0.60629 -7.71331,-0.2507 -11.56379,-0.37818 -4.89283,-0.0361 -9.78564,-0.0752 -14.67846,-0.11245 -0.16067,0.44433 -0.32133,0.88867 -0.482,1.333 z"
       stroke="none"
       fill="#040404"
       fill-rule="evenodd"
       inkscape:label="logo"
       style="display:inline;fill:url(#linearGradient5);fill-opacity:1;stroke:none;stroke-width:1;stroke-dasharray:none;stroke-opacity:1;filter:url(#filter29)"
       inkscape:original-d="m 133.825,56.491 c -0.086,0.28 -0.267,1.139 -0.403,1.909 -0.136,0.77 -0.531,2.93 -0.878,4.8 -1.435,7.73 -1.725,6.633 2.356,8.9 0.495,0.275 0.99,0.59 1.1,0.701 0.11,0.11 0.74,0.467 1.4,0.792 4.087,2.017 10.447,10.692 11.588,15.807 1.085,4.864 1.024,10.883 -0.171,16.9 -0.229,1.155 -0.586,2.955 -0.792,4 -0.207,1.045 -0.493,2.44 -0.636,3.1 -0.143,0.66 -0.624,3.09 -1.07,5.4 -1.318,6.833 -1.57,8.108 -1.973,10 -0.511,2.401 -1.031,4.948 -1.533,7.5 -0.227,1.155 -0.587,2.955 -0.8,4 -0.213,1.045 -0.562,2.8 -0.775,3.9 -0.214,1.1 -0.506,2.54 -0.649,3.2 -0.294,1.359 -1.701,8.578 -2.26,11.6 -0.203,1.1 -0.469,2.72 -0.59,3.6 -0.122,0.88 -0.383,1.771 -0.58,1.98 -0.197,0.209 -0.359,1.118 -0.359,2.02 0,0.902 -0.162,1.811 -0.359,2.02 -0.197,0.209 -0.458,1.1 -0.58,1.98 -0.121,0.88 -0.403,2.5 -0.626,3.6 -0.222,1.1 -0.522,2.585 -0.665,3.3 -0.144,0.715 -0.285,1.336 -0.315,1.38 -0.03,0.044 -5.631,0.179 -12.446,0.3 l -12.391,0.22 -0.284,1 c -0.156,0.55 -0.488,2.08 -0.737,3.4 -0.249,1.32 -0.606,3.03 -0.792,3.8 -1.051,4.35 -1.011,4.618 0.866,5.926 9.924,6.913 13.47,19.592 9.867,35.274 -0.121,0.525 2.069,0.613 17.562,0.704 10.453,0.062 17.7,0.255 17.7,0.473 0,0.608 -17.843,11.623 -18.827,11.623 -0.205,0 -0.373,0.18 -0.373,0.4 0,0.22 -0.193,0.4 -0.428,0.4 -0.235,0 -1.213,0.54 -2.172,1.2 -0.959,0.66 -1.86,1.2 -2.002,1.2 -0.142,0 -1.459,0.766 -2.928,1.702 -1.468,0.936 -3.135,1.94 -3.704,2.232 -3.248,1.666 -3.113,1.355 -5.209,12.066 -0.237,1.21 -0.603,3.01 -0.812,4 -0.363,1.714 -0.606,2.908 -1.565,7.7 -0.232,1.155 -0.521,2.776 -0.643,3.603 -0.122,0.826 -0.382,1.602 -0.579,1.723 -0.197,0.122 -0.358,0.573 -0.358,1.003 0,0.43 -0.15,1.094 -0.334,1.476 -2.976,6.188 -4.177,8.463 -4.853,9.189 -0.447,0.48 -0.813,1.059 -0.813,1.287 0,2.357 -11.486,11.546 -19.3,15.441 -5.292,2.637 -5.5,2.787 -5.5,3.979 0,0.682 -0.162,1.41 -0.359,1.619 -0.197,0.209 -0.458,1.1 -0.58,1.98 -0.121,0.88 -0.419,2.59 -0.661,3.8 -0.242,1.21 -0.54,2.875 -0.662,3.7 l -0.222,1.5 h 56.552 56.552 l 0.529,-3.1 c 0.291,-1.705 0.708,-4 0.925,-5.1 1.098,-5.546 1.145,-6.6 0.29,-6.6 -0.544,0 -5.528,-3.129 -7.892,-4.956 -4.107,-3.172 -8.841,-10.895 -8.866,-14.464 -0.003,-0.451 -0.195,-1.009 -0.427,-1.241 -0.537,-0.537 -0.256,-11.519 0.371,-14.439 0.247,-1.155 0.611,-2.955 0.808,-4 0.464,-2.465 1.571,-8.153 2.082,-10.7 0.221,-1.1 0.581,-2.9 0.801,-4 0.22,-1.1 0.499,-2.72 0.62,-3.6 0.122,-0.88 0.383,-1.771 0.58,-1.98 0.197,-0.209 0.359,-1.143 0.359,-2.076 0,-0.933 0.18,-1.808 0.4,-1.944 0.22,-0.136 0.4,-1.011 0.4,-1.944 0,-0.933 0.162,-1.867 0.359,-2.076 0.197,-0.209 0.457,-1.1 0.577,-1.98 0.257,-1.892 0.914,-5.434 1.371,-7.4 l 0.325,-1.4 20.584,-0.228 c 12.834,-0.142 21.563,-0.402 23.184,-0.692 1.43,-0.255 4.31,-0.752 6.4,-1.104 2.09,-0.352 4.16,-0.785 4.6,-0.962 0.44,-0.178 1.61,-0.541 2.6,-0.807 0.99,-0.267 2.113,-0.647 2.495,-0.846 0.382,-0.199 0.969,-0.361 1.305,-0.361 0.336,0 0.923,-0.159 1.305,-0.353 0.382,-0.195 1.145,-0.528 1.695,-0.742 5.208,-2.022 14.829,-7.468 18.85,-10.669 0.577,-0.46 1.561,-1.196 2.185,-1.636 5.176,-3.645 14.227,-12.533 18.954,-18.613 0.764,-0.983 1.536,-1.967 1.715,-2.187 4.363,-5.354 12.162,-19.484 15.234,-27.6 0.833,-2.2 1.683,-4.313 1.888,-4.695 0.206,-0.382 0.374,-1.046 0.374,-1.476 0,-0.43 0.18,-0.893 0.4,-1.029 0.22,-0.136 0.4,-0.676 0.4,-1.2 0,-0.524 0.16,-1.052 0.356,-1.173 0.195,-0.121 0.447,-0.806 0.558,-1.523 0.112,-0.717 0.575,-2.744 1.029,-4.504 3.92,-15.183 4.192,-34.664 0.659,-47.2 -0.372,-1.32 -0.77,-2.897 -0.885,-3.505 -0.115,-0.608 -0.368,-1.203 -0.563,-1.324 -0.195,-0.12 -0.354,-0.48 -0.354,-0.799 0,-0.563 -0.778,-2.459 -2.532,-6.172 -1.087,-2.302 -4.506,-8.172 -5.165,-8.868 C 304.427,79.239 303.671,78.28 303.024,77.4 294.185,65.379 280.469,58.368 262.6,56.739 255.462,56.088 134.021,55.855 133.825,56.491 m 105.742,51.836 c 12.319,4.448 17.615,19.547 13.002,37.073 -0.347,1.32 -0.729,2.808 -0.848,3.306 -0.119,0.498 -0.375,1.004 -0.569,1.124 -0.193,0.119 -0.352,0.499 -0.352,0.842 0,1.106 -4.073,9.032 -6.231,12.128 -5.119,7.342 -12.904,13.129 -20.369,15.14 -4.875,1.313 -20.9344,1.94241 -22.4854,0.79241 -0.66,-0.489 -2.09523,-0.93694 -2.79711,-2.34035 -1.05756,-2.11459 -0.51749,-5.1171 -0.51749,-5.33606 0,-0.933 0.31466,-1.79223 0.359,-2.076 0.62865,-4.02292 0.59892,-5.7529 1.852,-8.78 0.298,-1.377 1.721,-8.681 2.239,-11.5 0.193,-1.045 0.537,-2.845 0.767,-4 0.229,-1.155 0.51,-2.73 0.624,-3.5 0.115,-0.77 0.366,-1.76 0.559,-2.2 0.193,-0.44 0.444,-1.43 0.559,-2.2 0.114,-0.77 0.389,-2.3 0.612,-3.4 0.222,-1.1 0.578,-2.9 0.791,-4 0.214,-1.1 0.506,-2.54 0.649,-3.2 0.294,-1.359 1.701,-8.578 2.26,-11.6 0.203,-1.1 0.469,-2.72 0.59,-3.6 0.122,-0.88 0.383,-1.771 0.58,-1.98 0.197,-0.209 0.359,-0.713 0.359,-1.121 0,-1.262 24.717,-0.89 28.367,0.428 m 31.315,127.396 c -0.265,0.734 -0.482,1.895 -0.482,2.582 0,0.686 -0.18,1.359 -0.4,1.495 -0.22,0.136 -0.4,1.011 -0.4,1.944 0,0.933 -0.162,1.867 -0.359,2.076 -0.197,0.209 -0.458,1.1 -0.58,1.98 -0.226,1.641 -0.489,3.087 -1.637,9 -0.363,1.87 -0.817,4.3 -1.009,5.4 -0.192,1.1 -0.54,2.495 -0.772,3.1 l -0.423,1.1 h -14.561 c -16.016,0 -15.21,-0.134 -15.594,2.6 -0.216,1.542 -0.732,4.292 -1.276,6.8 -0.625,2.885 -2.366,12.058 -2.905,15.302 -0.173,1.046 -0.454,2.126 -0.623,2.4 -0.244,0.394 2.797,0.498 14.565,0.498 h 14.873 l -0.235,2.1 c -0.13,1.155 -0.43,3 -0.668,4.1 -0.774,3.58 -1.232,5.97 -1.457,7.6 -0.122,0.88 -0.383,1.771 -0.58,1.98 -0.197,0.209 -0.359,1.118 -0.359,2.02 0,0.902 -0.162,1.811 -0.359,2.02 -0.197,0.209 -0.457,1.1 -0.577,1.98 -0.12,0.88 -0.403,2.59 -0.631,3.8 -0.227,1.21 -0.462,2.56 -0.523,3 -0.115,0.834 26.534,1.522 27.341,0.705 0.167,-0.168 0.509,-1.475 0.762,-2.905 0.253,-1.43 0.632,-3.41 0.842,-4.4 0.385,-1.817 0.799,-3.857 1.562,-7.7 0.229,-1.155 0.51,-2.73 0.624,-3.5 0.115,-0.77 0.366,-1.76 0.559,-2.2 0.193,-0.44 0.444,-1.43 0.559,-2.2 0.551,-3.706 0.899,-5.446 1.18,-5.902 0.237,-0.383 3.678,-0.498 14.861,-0.498 11.183,0 14.624,-0.115 14.861,-0.498 0.281,-0.456 0.629,-2.196 1.18,-5.902 0.858,-5.74484 0.17868,1.88934 1.118,-4.4 0.20815,-1.40591 0.99512,-5.31587 1.398,-7.752 0.213,-1.293 0.57,-3.183 0.791,-4.2 0.222,-1.016 0.513,-2.523 0.646,-3.348 l 0.242,-1.5 h -14.185 c -15.965,0 -15.49,0.054 -15.033,-1.725 0.18,-0.701 0.544,-2.535 0.808,-4.075 0.795,-4.629 1.56,-8.565 2.563,-13.2 0.257,-1.185 0.621,-3.001 1.421,-7.1 0.814,-4.164 2.452,-3.686 -13.028,-3.805 l -13.618,-0.105 -0.482,1.333"
       inkscape:path-effect="#path-effect3"
       transform="matrix(0.33843182,0,0,0.33843182,-4.8984704,171.19913)"
       sodipodi:nodetypes="cscsccsccscccsccccssscccssccsccccsssssscccccccscsscsscsccccccsccscccscssssscccccsccssccccccccssscccsscscccccccscscccsssccccsccccccssccsssscssccsccccsccccsssscccscccsccscccccccsscccccc" /></g></svg>
