<?xml version="1.0" encoding="UTF-8" standalone="no"?>
<svg
   width="24"
   height="24"
   viewBox="0 0 24 24"
   fill="none"
   stroke="currentColor"
   stroke-width="2"
   stroke-linecap="round"
   stroke-linejoin="round"
   class="icon icon-tabler icons-tabler-outline icon-tabler-file-settings"
   version="1.1"
   id="svg10"
   sodipodi:docname="file-settings.svg"
   inkscape:version="1.4.2 (ebf0e940d0, 2025-05-08)"
   xmlns:inkscape="http://www.inkscape.org/namespaces/inkscape"
   xmlns:sodipodi="http://sodipodi.sourceforge.net/DTD/sodipodi-0.dtd"
   xmlns="http://www.w3.org/2000/svg"
   xmlns:svg="http://www.w3.org/2000/svg">
  <defs
     id="defs10" />
  <sodipodi:namedview
     id="namedview10"
     pagecolor="#ffffff"
     bordercolor="#000000"
     borderopacity="0.25"
     inkscape:showpageshadow="2"
     inkscape:pageopacity="0.0"
     inkscape:pagecheckerboard="0"
     inkscape:deskcolor="#d1d1d1"
     inkscape:zoom="47.208333"
     inkscape:cx="12"
     inkscape:cy="12"
     inkscape:window-width="2327"
     inkscape:window-height="1384"
     inkscape:window-x="0"
     inkscape:window-y="0"
     inkscape:window-maximized="1"
     inkscape:current-layer="svg10" />
  <path
     stroke="none"
     d="M0 0h24v24H0z"
     fill="none"
     id="path1" />
  <path
     d="m 12,14.183699 m -2.5218987,0 a 2.5218989,2.1836989 0 1 0 5.0437977,0 2.5218988,2.1836989 0 1 0 -5.0437977,0"
     id="path2"
     style="stroke-width:2.34671" />
  <path
     d="M 12,10.362227 V 12"
     id="path3"
     style="stroke-width:2.34671" />
  <path
     d="m 12,16.367399 v 1.637773"
     id="path4"
     style="stroke-width:2.34671" />
  <path
     d="m 15.821937,12.272963 -1.637973,0.818886"
     id="path5"
     style="stroke-width:2.34671" />
  <path
     d="M 9.816036,15.275548 8.1768013,16.094436"
     id="path6"
     style="stroke-width:2.34671" />
  <path
     d="M 15.782848,16.152303 14.162529,15.308304"
     id="path7"
     style="stroke-width:2.34671" />
  <path
     d="M 9.8374719,13.059094 8.2171517,12.215093"
     id="path8"
     style="stroke-width:2.34671" />
  <path
     d="m 14.521899,2.1733553 v 4.3673978 a 1.2609494,1.0918494 0 0 0 1.260949,1.0918494 h 5.043798"
     id="path9"
     style="stroke-width:2.34671" />
  <path
     d="M 18.304747,21.826645 H 5.6952529 A 2.5218988,2.1836989 0 0 1 3.173354,19.642946 V 4.3570543 a 2.5218988,2.1836989 0 0 1 2.5218989,-2.183699 h 8.8266461 l 6.304747,5.4592472 V 19.642946 a 2.5218988,2.1836989 0 0 1 -2.521899,2.183699 z"
     id="path10"
     style="stroke-width:2.34671" />
</svg>
