<?xml version="1.0" encoding="UTF-8" standalone="no"?>
<!-- Generator: Adobe Illustrator 22.1.0, SVG Export Plug-In . SVG Version: 6.00 Build 0)  -->

<svg
   version="1.1"
   id="Layer_2_1_"
   x="0px"
   y="0px"
   viewBox="0 0 491 491"
   style="enable-background:new 0 0 491 491;"
   xml:space="preserve"
   sodipodi:docname="proton.svg"
   inkscape:version="1.4.2 (ebf0e940d0, 2025-05-08)"
   xmlns:inkscape="http://www.inkscape.org/namespaces/inkscape"
   xmlns:sodipodi="http://sodipodi.sourceforge.net/DTD/sodipodi-0.dtd"
   xmlns="http://www.w3.org/2000/svg"
   xmlns:svg="http://www.w3.org/2000/svg"><defs
   id="defs3" /><sodipodi:namedview
   id="namedview3"
   pagecolor="#ffffff"
   bordercolor="#000000"
   borderopacity="0.25"
   inkscape:showpageshadow="2"
   inkscape:pageopacity="0.0"
   inkscape:pagecheckerboard="0"
   inkscape:deskcolor="#d1d1d1"
   inkscape:zoom="2.3075356"
   inkscape:cx="245.5"
   inkscape:cy="245.5"
   inkscape:window-width="2327"
   inkscape:window-height="1384"
   inkscape:window-x="0"
   inkscape:window-y="0"
   inkscape:window-maximized="1"
   inkscape:current-layer="Layer_2_1_" />
<style
   type="text/css"
   id="style1">
	.st0{fill:#1A2233;}
	.st1{fill:#F50057;}
	.st2{fill:#FFFFFF;}
</style>
<!-- <path class="st0" d="M455.3,491H35.7C16,491,0,475,0,455.3V35.7C0,16,16,0,35.7,0h419.7C475,0,491,16,491,35.7v419.7
	C491,475,475,491,455.3,491z"/> -->
<g
   id="g3"
   transform="matrix(1.0444444,0,0,1.1729473,-11.411111,-42.899925)">
	<path
   class="st1"
   d="m 470.5,245.5 c 0,-29.8 -37.3,-58.1 -94.6,-75.6 13.2,-58.3 7.3,-104.7 -18.5,-119.6 -6,-3.5 -12.9,-5.1 -20.5,-5.1 v 20.5 c 4.2,0 7.6,0.8 10.5,2.4 12.5,7.2 17.9,34.4 13.7,69.4 -1,8.6 -2.7,17.7 -4.7,27 -18,-4.4 -37.6,-7.8 -58.2,-10 -12.4,-17 -25.2,-32.4 -38.2,-45.9 29.9,-27.8 58,-43 77,-43 v -20.5 0 c -25.2,0 -58.2,18 -91.6,49.2 C 212,63.3 179,45.5 153.8,45.5 V 66 c 19,0 47.1,15.1 77,42.7 -12.8,13.5 -25.7,28.8 -37.9,45.8 -20.7,2.2 -40.4,5.6 -58.3,10.1 -2.1,-9.2 -3.7,-18.1 -4.8,-26.6 -4.3,-35 1,-62.3 13.4,-69.5 2.8,-1.7 6.3,-2.4 10.5,-2.4 v -20.5 0 c -7.7,0 -14.7,1.7 -20.7,5.1 -25.8,14.9 -31.6,61.2 -18.3,119.3 -57.1,17.6 -94.2,45.8 -94.2,75.5 0,29.8 37.3,58.1 94.6,75.6 -13.2,58.3 -7.3,104.7 18.5,119.6 6,3.5 12.9,5.1 20.6,5.1 25.2,0 58.2,-18 91.6,-49.2 33.4,31 66.4,48.8 91.6,48.8 7.7,0 14.7,-1.7 20.7,-5.1 25.8,-14.9 31.6,-61.2 18.3,-119.3 57,-17.5 94.1,-45.7 94.1,-75.5 z M 351.1,184.4 c -3.4,11.8 -7.6,24 -12.4,36.2 -3.8,-7.3 -7.7,-14.7 -12,-22 -4.2,-7.3 -8.7,-14.5 -13.2,-21.5 13,1.9 25.6,4.3 37.6,7.3 z m -42,97.7 c -7.2,12.4 -14.5,24.1 -22.1,35 -13.7,1.2 -27.5,1.8 -41.5,1.8 -13.9,0 -27.7,-0.6 -41.3,-1.7 -7.6,-10.9 -15,-22.6 -22.2,-34.9 -7,-12 -13.3,-24.2 -19.1,-36.5 5.7,-12.3 12.1,-24.6 19,-36.6 7.2,-12.4 14.5,-24.1 22.1,-35 13.7,-1.2 27.5,-1.8 41.5,-1.8 13.9,0 27.7,0.6 41.3,1.7 7.6,10.9 15,22.6 22.2,34.9 7,12 13.3,24.2 19.1,36.5 -5.8,12.2 -12.2,24.5 -19,36.6 z m 29.6,-12 c 5,12.3 9.2,24.6 12.7,36.5 -12,2.9 -24.7,5.4 -37.8,7.3 4.5,-7.1 9,-14.3 13.2,-21.7 4.2,-7.3 8.1,-14.7 11.9,-22.1 z m -93,97.9 c -8.5,-8.8 -17.1,-18.6 -25.5,-29.4 8.3,0.4 16.7,0.6 25.2,0.6 8.6,0 17.2,-0.2 25.5,-0.6 -8.2,10.8 -16.8,20.6 -25.2,29.4 z m -68.3,-54 c -13,-1.9 -25.6,-4.3 -37.6,-7.2 3.4,-11.8 7.6,-24 12.4,-36.2 3.8,7.3 7.7,14.7 12,22 4.3,7.2 8.7,14.4 13.2,21.4 z m 67.8,-190.9 c 8.5,8.8 17.1,18.6 25.5,29.4 -8.3,-0.4 -16.7,-0.6 -25.2,-0.6 -8.6,0 -17.2,0.2 -25.5,0.6 8.3,-10.8 16.8,-20.6 25.2,-29.4 z m -67.9,54 c -4.5,7.1 -9,14.3 -13.2,21.7 -4.2,7.3 -8.2,14.7 -11.9,22 -5,-12.3 -9.2,-24.6 -12.7,-36.5 12.1,-2.8 24.7,-5.3 37.8,-7.2 z M 94.3,292 C 61.8,278.1 40.8,260 40.8,245.6 c 0,-14.4 21,-32.7 53.5,-46.4 7.9,-3.4 16.5,-6.4 25.4,-9.3 5.2,18 12.1,36.7 20.6,55.9 -8.4,19.1 -15.2,37.7 -20.4,55.6 -9,-2.9 -17.6,-6 -25.6,-9.4 z m 49.4,131 c -12.5,-7.2 -17.9,-34.4 -13.7,-69.4 1,-8.6 2.7,-17.7 4.7,-27 18,4.4 37.6,7.8 58.2,10 12.4,17 25.2,32.4 38.2,45.9 -29.9,27.8 -58,43 -77,43 -4.2,-0.1 -7.7,-0.9 -10.4,-2.5 z m 217.6,-69.9 c 4.3,35 -1,62.3 -13.4,69.5 -2.8,1.7 -6.3,2.4 -10.5,2.4 -19,0 -47.1,-15.1 -77,-42.7 12.8,-13.5 25.7,-28.8 37.9,-45.8 20.7,-2.2 40.4,-5.6 58.3,-10.1 2,9.3 3.6,18.2 4.7,26.7 z M 396.6,292 c -7.9,3.4 -16.5,6.4 -25.4,9.3 -5.2,-18 -12.1,-36.7 -20.6,-55.9 8.4,-19.1 15.2,-37.7 20.4,-55.6 9.1,2.8 17.7,6 25.8,9.4 32.5,13.9 53.5,32 53.5,46.4 -0.3,14.3 -21.3,32.6 -53.7,46.4 z"
   id="path1" />
	<path
   class="st1"
   d="M 153.6,45.5 Z"
   id="path2" />
	<circle
   class="st2"
   cx="245.39999"
   cy="245.5"
   r="41.900002"
   id="circle2" />
	<path
   class="st1"
   d="M 336.8,45.2 Z"
   id="path3" />
</g>
</svg>
