<?xml version="1.0" encoding="UTF-8" standalone="no"?>
<svg
   width="24"
   height="24"
   viewBox="0 0 24 24"
   fill="currentColor"
   class="icon icon-tabler icons-tabler-filled icon-tabler-shield"
   version="1.1"
   id="svg2"
   sodipodi:docname="shield.svg"
   inkscape:version="1.4.2 (ebf0e940d0, 2025-05-08)"
   xmlns:inkscape="http://www.inkscape.org/namespaces/inkscape"
   xmlns:sodipodi="http://sodipodi.sourceforge.net/DTD/sodipodi-0.dtd"
   xmlns="http://www.w3.org/2000/svg"
   xmlns:svg="http://www.w3.org/2000/svg">
  <defs
     id="defs2" />
  <sodipodi:namedview
     id="namedview2"
     pagecolor="#ffffff"
     bordercolor="#000000"
     borderopacity="0.25"
     inkscape:showpageshadow="2"
     inkscape:pageopacity="0.0"
     inkscape:pagecheckerboard="0"
     inkscape:deskcolor="#d1d1d1"
     inkscape:zoom="47.208333"
     inkscape:cx="12"
     inkscape:cy="14.541924"
     inkscape:window-width="2327"
     inkscape:window-height="1384"
     inkscape:window-x="0"
     inkscape:window-y="0"
     inkscape:window-maximized="1"
     inkscape:current-layer="svg2" />
  <path
     d="M 11.872748,1.0077 11.998309,1 l 0.129966,0.0077 0.06498,0.0088 0.06719,0.0143 0.122256,0.0374 a 1.0936976,1.0922993 0 0 1 0.239005,0.1231999 l 0.114547,0.0902 0.280859,0.2397999 A 12.115482,12.099992 0 0 0 20.93513,4.312098 l 0.376681,-0.011 a 1.1014074,1.0999993 0 0 1 1.106915,0.7886994 14.318297,14.299991 0 0 1 -10.14176,17.8749886 1.1014074,1.0999993 0 0 1 -0.552907,0 A 14.318297,14.299991 0 0 1 1.5811973,5.0897973 1.1014074,1.0999993 0 0 1 2.6881118,4.3010979 12.115482,12.099992 0 0 0 10.982811,1.5213997 l 0.28967,-0.2474999 0.105735,-0.0825 A 1.0936976,1.0922993 0 0 1 11.617222,1.0682 L 11.74058,1.0308 a 1.0683652,1.0669993 0 0 1 0.131067,-0.0231 z"
     id="path2"
     style="stroke-width:1.1007" />
</svg>
